<?xml version="1.0" encoding="UTF-8" standalone="no"?>
<svg
   width="600"
   height="300"
   viewBox="0 0 562.50001 281.25002"
   id="svg342030"
   version="1.1"
   inkscape:version="1.2 (dc2aeda, 2022-05-15)"
   sodipodi:docname="svg_cloud_minus_two_squared.svg"
   xmlns:inkscape="http://www.inkscape.org/namespaces/inkscape"
   xmlns:sodipodi="http://sodipodi.sourceforge.net/DTD/sodipodi-0.dtd"
   xmlns="http://www.w3.org/2000/svg"
   xmlns:svg="http://www.w3.org/2000/svg"
   xmlns:rdf="http://www.w3.org/1999/02/22-rdf-syntax-ns#"
   xmlns:cc="http://creativecommons.org/ns#"
   xmlns:dc="http://purl.org/dc/elements/1.1/">
  <defs
     id="defs209348" />
  <sodipodi:namedview
     id="base"
     pagecolor="#ffffff"
     bordercolor="#666666"
     borderopacity="1.0"
     inkscape:pageopacity="0.0"
     inkscape:pageshadow="2"
     inkscape:zoom="1.4142137"
     inkscape:cx="187.73683"
     inkscape:cy="135.76449"
     inkscape:document-units="px"
     inkscape:current-layer="layer14"
     showgrid="false"
     inkscape:window-width="1312"
     inkscape:window-height="790"
     inkscape:window-x="0"
     inkscape:window-y="30"
     inkscape:window-maximized="0"
     fit-margin-left="40"
     fit-margin-right="20"
     fit-margin-top="20"
     fit-margin-bottom="20"
     inkscape:snap-global="false"
     inkscape:showpageshadow="2"
     inkscape:pagecheckerboard="0"
     inkscape:deskcolor="#d1d1d1" />
  <metadata
     id="metadata342035">
    <rdf:rdf>
      <cc:work
         rdf:about="">
        <dc:format>image/svg+xml</dc:format>
        <dc:type
           rdf:resource="http://purl.org/dc/dcmitype/StillImage" />
        <dc:title />
      </cc:work>
    </rdf:rdf>
  </metadata>
  <g
     inkscape:label="Layer 1"
     inkscape:groupmode="layer"
     id="layer1"
     transform="translate(82.692923,-206.113)"
     style="display:none;opacity:1">
    <rect
       style="opacity:1;fill:#ffe6d5;fill-opacity:1;fill-rule:nonzero;stroke:none;stroke-width:1.03125;stroke-linecap:round;stroke-linejoin:round;stroke-miterlimit:4;stroke-dasharray:none;stroke-dashoffset:0;stroke-opacity:1"
       id="rect8031"
       width="200.54419"
       height="60.987965"
       x="31.328051"
       y="303.19901"
       rx="7.6836658"
       ry="11.244782" />
    <path
       style="opacity:1;fill:#000000;fill-opacity:1;fill-rule:nonzero;stroke:none;stroke-width:1.03125;stroke-linecap:round;stroke-linejoin:round;stroke-miterlimit:4;stroke-dasharray:none;stroke-dashoffset:0;stroke-opacity:1"
       id="path9363"
       d="m -36.713947,97.651193 c -1.33107,-2.48772 0.17847,-5.05676 2.2114,-6.64879 0.69551,-0.54467 1.4994,-0.93454 2.2491,-1.4018 0.98969,-0.37529 1.94683,-0.85137 2.96908,-1.12587 5.68118,-1.52551 11.78144,-0.75774 17.18851,1.41318 1.35818,0.5453 2.6207698,1.30368 3.9311398,1.95552 2.59645,1.75165 5.10766,3.7676 6.51552,6.64636 0.41891,0.85658 0.72310002,1.815697 0.37595,2.754777 -0.11477,0.31048 -0.38562,0.5381 -0.57843,0.80715 -0.10419,0.59866 -1.03458,-0.1076 -0.84278,-0.34247 0.80565,-0.98663 2.29226002,-0.96078 3.38509002,-0.93957 3.23458998,0.0628 4.12737998,0.51593 7.42225998,1.35206 1.54617,0.67611 3.1566802,1.2209 4.6385102,2.02834 7.56869,4.12416 13.46745,10.85338 16.43976,18.96899 0.79857,2.18043 1.1665,4.49526 1.74975,6.74289 0.052,2.32384 0.39797,4.65971 0.15607,6.97151 -0.78727,7.52363 -4.35669,14.01525 -10.30699,18.70954 -5.77968,4.55968 -8.79087,4.88702 -15.7745702,7.27666 -9.571,1.29852 -11.73673,2.21123 -21.6139598,0.93225 -3.95633,-0.51229 -7.85407,-1.45462 -11.70419,-2.49941 -6.69279,-1.81619 -13.28,-4.41997 -19.47673,-7.53045 -2.12943,-1.06888 -4.1277,-2.38117 -6.19156,-3.57174 -1.23092,-0.95773 -2.46185,-1.91545 -3.69277,-2.87318 0,0 0.21339,-0.39805 0.21339,-0.39805 v 0 c 1.21749,0.95463 2.43498,1.90926 3.65246,2.8639 2.05377,1.18999 4.04137,2.50231 6.16132,3.56994 6.17199,3.1083 12.74818,5.71109 19.41741,7.52295 3.83479,1.04182 7.71747,1.98014 11.65839,2.4902 9.8346998,1.27287 11.9835198,0.36265 21.5097098,-0.93624 6.9272302,-2.37891 9.9214002,-2.70629 15.6452402,-7.24227 5.62336,-4.45635 9.35049,-10.95016 10.11419,-18.10096 0.24482,-2.29247 -0.0798,-4.61032 -0.11961,-6.91548 -0.57098,-2.23345 -0.92731,-4.53308 -1.71295,-6.70034 -2.92319,-8.06383 -8.76297,-14.75427 -16.26995,-18.85463 -1.46694,-0.80125 -3.0620002,-1.34157 -4.5930002,-2.01235 -3.26705,-0.82919 -4.12287,-1.27156 -7.32339998,-1.33347 -0.71912,-0.0139 -1.43232,0.13363 -2.14890002,0.19571 -0.27408,0.0237 -0.55453,0.002 -0.82304,0.0618 -0.0853,0.019 -0.27413,0.11742 -0.20222,0.16721 0.11485,0.0795 0.27915,-0.0115 0.41873,-0.0173 0.12064,-0.0729 0.30263,-0.0909 0.36191,-0.2189 0.41292,-0.89114 0.15894,-1.719847 -0.24896,-2.583687 -1.34634,-2.85131 -3.83247,-4.83496 -6.37186,-6.56828 -1.29584,-0.64757 -2.5438998,-1.40121 -3.8875198,-1.94271 -5.34181,-2.15282 -11.37819,-2.91863 -16.99212,-1.39922 -1.00314,0.2715 -1.94127,0.74261 -2.91191,1.11392 -0.7277,0.45904 -1.5094,0.84198 -2.18312,1.37711 -1.48102,1.17638 -2.96901,3.11628 -2.44599,5.12728 0.07,0.26913 0.22882,0.50691 0.34324,0.76037 0,0 -0.3116,0.34759 -0.3116,0.34759 z"
       inkscape:connector-curvature="0" />
    <path
       style="opacity:1;fill:#000000;fill-opacity:1;fill-rule:nonzero;stroke:none;stroke-width:1.03125;stroke-linecap:round;stroke-linejoin:round;stroke-miterlimit:4;stroke-dasharray:none;stroke-dashoffset:0;stroke-opacity:1"
       id="path9365"
       d="m 179.23091,532.02909 c -0.48319,3.68103 -1.66568,7.17985 -4.23995,9.95929 -0.85885,0.92732 -1.87007,1.7009 -2.80511,2.55135 -1.29704,0.84116 -2.53951,1.77313 -3.8911,2.5235 -7.93085,4.40297 -17.07219,6.45279 -26.00199,7.51966 -2.89843,0.34628 -5.81694,0.49638 -8.72541,0.74459 -3.11176,-0.004 -6.22662,0.12703 -9.33527,-0.0117 -12.43434,-0.5551 -25.42891,-3.0857 -36.89389,-8.0299 -2.23817,-0.96519 -4.34508,-2.21006 -6.51762,-3.31509 -3.24954,-2.36726 -5.18447,-3.28326 -7.41965,-6.48415 -0.55507,-0.79488 -0.81721,-1.75837 -1.22581,-2.63755 0,0 -0.28498,0.35848 -0.28498,0.35848 v 0 c 0.43347,0.89354 0.72351,1.87223 1.30042,2.68063 2.2986,3.22094 4.2165,4.12032 7.52321,6.51135 2.18372,1.10569 4.30226,2.35088 6.55118,3.3171 11.50295,4.94204 24.52423,7.47703 36.9933,8.03279 3.11684,0.13892 6.23986,0.007 9.35979,0.0117 2.91523,-0.24824 5.84051,-0.39819 8.7457,-0.74472 8.97105,-1.0701 18.14975,-3.12954 26.12116,-7.54349 1.36622,-0.7565 2.62317,-1.69542 3.93475,-2.54313 0.95075,-0.86029 1.97806,-1.64289 2.85226,-2.58087 2.61566,-2.80647 3.84759,-6.33473 4.3489,-10.06384 0,0 -0.38989,-0.25596 -0.38989,-0.25596 z"
       inkscape:connector-curvature="0" />
    <path
       style="opacity:1;fill:#000000;fill-opacity:1;fill-rule:nonzero;stroke:none;stroke-width:1.03125;stroke-linecap:round;stroke-linejoin:round;stroke-miterlimit:4;stroke-dasharray:none;stroke-dashoffset:0;stroke-opacity:1"
       id="path9375"
       d="m 171.22767,88.610539 c 6.46843,-1.21127 13.13049,-1.17017 19.67022,-0.64002 2.39032,0.19378 4.76897,0.51161 7.15345,0.76741 5.2387,0.91726 12.16201,1.97908 17.25479,3.49283 11.31639,3.36361 22.62431,8.428461 32.43631,15.022871 2.74783,1.84675 5.22857,4.0628 7.84287,6.0942 5.23952,5.37129 9.09985,9.18727 9.41685,17.02902 0.0595,1.47281 -9.4e-4,3.00403 -0.48947,4.39487 -1.57177,4.47869 -3.90995,5.56982 -7.44734,8.59668 -2.57707,1.33582 -5.03691,2.92744 -7.73121,4.00746 -7.34766,2.94535 -15.48729,4.68925 -23.27101,5.85643 -8.08765,1.21276 -16.05968,1.73205 -24.22911,1.61383 -3.21266,-0.0465 -6.41427,-0.38791 -9.62141,-0.58186 -2.28412,-0.2989 -4.56824,-0.59779 -6.85236,-0.8967 0,0 0.0646,-0.4387 0.0646,-0.4387 v 0 c 2.27709,0.3014 4.55419,0.60278 6.8313,0.90417 3.19914,0.19581 6.39265,0.53959 9.59742,0.58743 8.15186,0.12167 16.11289,-0.39673 24.18264,-1.60972 7.76784,-1.16761 15.86174,-2.90749 23.18967,-5.85816 2.67286,-1.07625 5.11059,-2.66305 7.66588,-3.99457 2.93255,-2.5286 5.83118,-4.21929 7.20637,-8.00464 0.49613,-1.36565 0.57472,-2.87411 0.53138,-4.32645 -0.23244,-7.78967 -4.07037,-11.5548 -9.24801,-16.89779 -2.60267,-2.02809 -5.07124,-4.24114 -7.80802,-6.08427 -9.84038,-6.6272 -21.00092,-11.617311 -32.35701,-14.987681 -5.12234,-1.52026 -11.95519,-2.56136 -17.22262,-3.48062 -2.3792,-0.25386 -4.75261,-0.56973 -7.13761,-0.76156 -6.51348,-0.5239 -13.15116,-0.56292 -19.59085,0.6597 0,0 -0.0377,-0.46416 -0.0377,-0.46416 z"
       inkscape:connector-curvature="0" />
    <path
       style="opacity:1;fill:#000000;fill-opacity:1;fill-rule:nonzero;stroke:none;stroke-width:1.03125;stroke-linecap:round;stroke-linejoin:round;stroke-miterlimit:4;stroke-dasharray:none;stroke-dashoffset:0;stroke-opacity:1"
       id="path9409"
       d="m 281.0545,511.06889 c 0.6212,-0.23747 1.21737,-0.55542 1.86363,-0.71245 5.139,-1.24866 11.94968,-0.24106 16.77763,1.68807 1.82253,0.72824 3.50746,1.76222 5.26119,2.64333 5.44968,3.45829 10.22021,7.82838 13.68998,13.31741 1.12101,1.7734 2.24821,3.59491 2.88453,5.59409 1.76016,5.53001 0.98948,8.26567 0.53704,13.87768 -0.96216,2.35122 -1.58682,4.87078 -2.88646,7.05365 -1.35052,2.26832 -3.12968,4.27513 -4.97973,6.15835 -4.25559,4.3319 -8.2157,6.829 -14.03933,8.81632 -8.58619,2.93003 -11.78812,2.38946 -20.87861,2.78154 -3.71099,-0.41948 -7.45743,-0.59668 -11.13296,-1.25843 -5.99282,-1.07897 -13.42964,-3.37801 -19.07519,-5.83335 -2.07868,-0.90405 -4.00424,-2.12581 -6.00635,-3.18871 0,0 0.16424,-0.41235 0.16424,-0.41235 v 0 c 1.98895,1.06158 3.90061,2.28282 5.96686,3.18477 5.61781,2.45224 13.04206,4.75018 19.0077,5.82576 3.66113,0.6601 7.39321,0.83603 11.08981,1.25404 9.04436,-0.39331 12.22838,0.14559 20.76634,-2.77824 5.76539,-1.97436 9.71294,-4.47215 13.91935,-8.77327 1.82776,-1.86892 3.5547,-3.87928 4.91212,-6.11332 1.2278,-2.0207 1.84679,-4.35342 2.77018,-6.53012 0.4752,-5.51464 1.25908,-8.30179 -0.44647,-13.74546 -0.62264,-1.98732 -1.73804,-3.79852 -2.84632,-5.5617 -3.43306,-5.46172 -8.16714,-9.80863 -13.57598,-13.25073 -1.73707,-0.87501 -3.40553,-1.90214 -5.21123,-2.62502 -4.7589,-1.90514 -11.51952,-2.9184 -16.58676,-1.67007 -0.63319,0.15598 -1.21614,0.47118 -1.82421,0.70677 0,0 -0.121,-0.44856 -0.121,-0.44856 z"
       inkscape:connector-curvature="0" />
    <path
       style="opacity:1;fill:#000000;fill-opacity:1;fill-rule:nonzero;stroke:none;stroke-width:1.03125;stroke-linecap:round;stroke-linejoin:round;stroke-miterlimit:4;stroke-dasharray:none;stroke-dashoffset:0;stroke-opacity:1"
       id="path9463"
       d="m -211.37516,260.75389 c 4.30272,6.1527 9.95823,11.45836 16.58758,15.05584 2.48357,1.34774 5.13786,2.35381 7.7068,3.53071 2.84727,0.96681 5.64334,2.10011 8.54181,2.90043 5.68471,1.56966 13.20466,2.83345 19.06927,3.21999 6.44688,0.4249 13.12291,0.27132 19.44025,-1.27774 3.11149,-0.76297 6.04162,-2.13371 9.06244,-3.20055 5.86282,-3.09028 8.20475,-3.79872 12.98234,-8.2034 1.51815,-1.39965 2.83644,-3.01123 4.09393,-4.64907 2.36812,-3.08441 2.61674,-4.09531 4.06506,-7.36906 0,0 0.28884,0.35223 0.28884,0.35223 v 0 c -1.48089,3.28348 -1.75101,4.32227 -4.14432,7.41044 -1.27501,1.64519 -2.61117,3.26334 -4.1462,4.66904 -4.8206,4.4144 -7.16843,5.12105 -13.07098,8.21772 -3.03921,1.06851 -5.98796,2.4415 -9.11761,3.20553 -6.34231,1.54831 -13.04318,1.70055 -19.51419,1.27317 -5.88465,-0.38866 -13.42257,-1.65516 -19.12659,-3.22893 -2.90792,-0.80231 -5.71332,-1.93819 -8.56999,-2.90729 -2.58293,-1.18057 -5.25135,-2.18964 -7.74879,-3.54171 -6.66608,-3.60894 -12.35524,-8.93249 -16.69928,-15.10154 0,0 0.29963,-0.35581 0.29963,-0.35581 z"
       inkscape:connector-curvature="0" />
    <path
       style="opacity:1;fill:#000000;fill-opacity:1;fill-rule:nonzero;stroke:none;stroke-width:1.03125;stroke-linecap:round;stroke-linejoin:round;stroke-miterlimit:4;stroke-dasharray:none;stroke-dashoffset:0;stroke-opacity:1"
       id="path9469"
       d="m 206.33805,624.65346 c 1.11762,2.68357 2.97098,4.98792 5.11624,6.92929 0.92187,0.83424 1.91421,1.58713 2.87131,2.3807 2.86612,2.03959 5.50226,4.01933 8.59588,5.74483 2.1345,1.19054 4.33263,2.26738 6.55065,3.29396 4.71346,2.18158 9.54246,4.13015 14.59203,5.40627 2.73502,0.6912 5.54134,1.06103 8.31202,1.59154 2.89838,0.16823 5.79316,0.59104 8.69514,0.50469 3.11168,-0.0926 6.21782,-0.4853 9.28114,-1.03959 8.42469,-1.52441 16.82011,-4.56063 23.49835,-10.06817 1.77284,-1.46205 3.18696,-3.3114 4.78045,-4.96711 1.78186,-2.95356 3.49864,-5.02984 4.10296,-8.43079 0.13405,-0.75435 -0.12233,-1.52745 -0.1835,-2.29118 0,0 0.39774,-0.22968 0.39774,-0.22968 v 0 c 0.0313,0.95159 0.26542,1.91826 0.0938,2.85478 -0.61805,3.37345 -2.44155,5.59727 -4.21399,8.49404 -1.61288,1.66231 -3.0471,3.51891 -4.83861,4.98696 -6.72842,5.51357 -15.16303,8.55953 -23.63235,10.08551 -3.07938,0.55484 -6.20152,0.9479 -9.32913,1.03981 -2.9144,0.0857 -5.82142,-0.33935 -8.73213,-0.50903 -2.78195,-0.53244 -5.59961,-0.9038 -8.34584,-1.59733 -5.07589,-1.28186 -9.89654,-3.22839 -14.63523,-5.41781 -2.22718,-1.02902 -4.43548,-2.10636 -6.57942,-3.29918 -3.08833,-1.71826 -5.76727,-3.72253 -8.63228,-5.7555 -0.96609,-0.79773 -1.96732,-1.55471 -2.89826,-2.39319 -2.19799,-1.97967 -4.0661,-4.3214 -5.24795,-7.04358 0,0 0.38094,-0.27024 0.38094,-0.27024 z"
       inkscape:connector-curvature="0" />
    <path
       style="opacity:1;fill:#000000;fill-opacity:1;fill-rule:nonzero;stroke:none;stroke-width:1.03125;stroke-linecap:round;stroke-linejoin:round;stroke-miterlimit:4;stroke-dasharray:none;stroke-dashoffset:0;stroke-opacity:1"
       id="path9481"
       d="m 555.24876,274.88561 c 5.30283,-1.73346 11.02275,-2.27615 16.51138,-1.11832 1.52958,0.32266 3.00256,0.87848 4.50383,1.31772 1.46812,0.72996 3.01048,1.3222 4.40436,2.18984 6.16912,3.84007 10.55548,10.20029 11.93168,17.45283 0.39401,2.07643 0.34526,4.21494 0.5179,6.3224 -0.37848,2.29783 -0.56769,4.63637 -1.13545,6.89348 -1.77191,7.04426 -5.02965,12.61062 -10.83846,16.98988 -5.26168,3.96681 -8.15192,4.44055 -14.34653,6.66035 -2.93937,0.55055 -5.84849,1.30817 -8.81811,1.65166 -8.56089,0.99024 -17.59821,0.48035 -25.73287,-2.62801 -5.25982,-2.00982 -6.3997,-3.33445 -10.52376,-6.56681 -0.75715,-1.17881 -1.51431,-2.35764 -2.27147,-3.53645 0,0 0.34535,-0.4091 0.34535,-0.4091 v 0 c 0.7243,1.15787 1.44859,2.31573 2.17288,3.47358 4.0696,3.21485 5.18949,4.53066 10.3962,6.52847 8.084,3.10181 17.0739,3.6062 25.58426,2.61794 2.95224,-0.34282 5.84388,-1.09885 8.76583,-1.64827 6.13654,-2.20787 9.00716,-2.68043 14.21052,-6.62363 5.36406,-4.06497 8.89305,-9.77897 10.57301,-16.3141 0.57355,-2.23117 0.78056,-4.54359 1.17084,-6.81537 -0.15844,-2.08586 -0.0967,-4.20126 -0.47531,-6.25759 -1.32042,-7.1729 -5.62317,-13.48021 -11.71079,-17.28867 -1.37511,-0.86028 -2.89819,-1.44735 -4.34729,-2.17101 -1.48392,-0.43555 -2.93963,-0.98698 -4.45177,-1.30664 -5.42635,-1.14709 -11.09037,-0.60959 -16.32742,1.12622 0,0 -0.10884,-0.5404 -0.10884,-0.5404 z"
       inkscape:connector-curvature="0" />
    <path
       style="opacity:1;fill:none;fill-opacity:1;fill-rule:nonzero;stroke:#000000;stroke-width:1.03125;stroke-linecap:round;stroke-linejoin:round;stroke-miterlimit:4;stroke-dasharray:none;stroke-dashoffset:0;stroke-opacity:1"
       d="m -50.472505,515.31337 c 1.644357,3.83776 4.908685,6.65591 8.518454,8.6233 1.4274,0.77795 2.946085,1.37526 4.419122,2.06289 8.151095,3.03204 16.860255,4.49372 25.565915,4.13494 5.9532897,-0.24535 7.7285297,-0.857 13.4330997,-2.05737 4.24442,-1.37133 8.9673703,-2.72519 11.9027603,-6.38011 0.58716,-0.73109 1.29983,-1.90027 0.69844,-2.86275 -0.15526,-0.2485 -0.47062,-0.34918 -0.70593,-0.52378"
       id="path9540"
       inkscape:connector-curvature="0" />
    <path
       style="opacity:1;fill:none;fill-opacity:1;fill-rule:nonzero;stroke:#000000;stroke-width:1.03125;stroke-linecap:round;stroke-linejoin:round;stroke-miterlimit:4;stroke-dasharray:none;stroke-dashoffset:0;stroke-opacity:1"
       d="m 349.53673,622.42608 c -0.52512,0.2727 -0.38267,0.93093 -0.16671,1.30503 1.29798,2.24859 3.9749,3.2642 6.13734,4.40703 1.40224,0.55878 2.76415,1.23187 4.2067,1.67635 9.20049,2.83483 20.33046,4.1109 29.87962,2.72441 2.24272,-0.32562 4.41618,-1.02012 6.62426,-1.53018 1.73894,-0.84821 3.60297,-1.47743 5.2168,-2.54463 2.43296,-1.60886 4.53251,-3.88028 5.3882,-6.73091 0.62775,-2.09131 -0.0623,-3.18964 -0.71594,-5.03709"
       id="path9534"
       inkscape:connector-curvature="0" />
    <g
       id="g9497"
       transform="translate(-334.68751,-189.37501)">
      <path
         style="opacity:1;fill:#000000;fill-opacity:1;fill-rule:nonzero;stroke:none;stroke-width:1.03125;stroke-linecap:round;stroke-linejoin:round;stroke-miterlimit:4;stroke-dasharray:none;stroke-dashoffset:0;stroke-opacity:1"
         id="path9493"
         d="m 58.756261,365.25694 c -4.215656,-0.61398 -8.210354,-1.93652 -11.829301,-4.24022 -1.545056,-0.98354 -2.95995,-2.15795 -4.439925,-3.23692 -1.385381,-1.41445 -2.942794,-2.67881 -4.156135,-4.24335 -4.154006,-5.35639 -6.2325,-11.96506 -5.793234,-18.74665 0.430359,-6.64396 1.709428,-8.2092 4.287009,-14.19111 1.451625,-2.02626 2.697694,-4.21687 4.354876,-6.07876 6.291337,-7.06851 15.911888,-11.63483 25.452742,-11.41782 2.274056,0.0518 4.500141,0.66683 6.750216,1.00024 4.468538,1.54425 5.548238,1.5592 9.202013,3.93857 0.598687,0.38987 1.2168,0.81471 1.617591,1.40614 0.143268,0.21142 0.09874,0.7601 -0.15646,0.75003 -1.453669,-0.0574 -3.080934,-2.2302 -3.785625,-2.9575 -0.616566,-1.08759 -1.419966,-2.08876 -1.849688,-3.2628 -1.713843,-4.68231 -0.672721,-9.43241 2.501185,-13.2654 3.293325,-3.97721 6.04965,-4.70024 10.620826,-6.97981 2.4246,-0.62742 4.797131,-1.51015 7.2738,-1.88228 9.600629,-1.44252 19.558739,0.78629 27.381799,6.59262 1.36372,1.01217 2.48937,2.3108 3.73406,3.4662 2.72344,3.79171 1.676,1.93439 3.32714,5.4636 0,0 -0.32964,0.31965 -0.32964,0.31965 v 0 c -1.58864,-3.48365 -0.57398,-1.6478 -3.23228,-5.39917 -1.22687,-1.14765 -2.33442,-2.43794 -3.68062,-3.44297 -7.74547,-5.78246 -17.63225,-7.99729 -27.154728,-6.56102 -2.4567,0.37055 -4.809319,1.2495 -7.213978,1.87425 -2.029725,1.01733 -4.194975,1.80027 -6.089166,3.05198 -4.231726,2.79637 -7.635901,7.10177 -7.620216,12.38276 0.01022,3.42625 1.030218,4.47394 2.584125,7.26037 0.664847,0.6965 1.284056,1.43962 1.994531,2.08951 0.376556,0.34445 0.817547,0.6135 1.252425,0.88056 0.05972,0.0367 0.25875,0.0671 0.20955,0.0173 -2.873934,-2.91521 -6.854241,-4.12549 -10.656029,-5.30412 -2.226337,-0.3317 -4.428684,-0.9434 -6.679003,-0.9951 -9.461963,-0.21735 -18.998945,4.32492 -25.22133,11.34905 -1.639894,1.85119 -2.869856,4.02847 -4.304794,6.04271 -2.388637,5.59573 -3.779381,7.50634 -4.186988,13.63006 -0.447881,6.72874 1.540566,13.26088 5.654495,18.5948 1.199596,1.55534 2.743378,2.8118 4.115062,4.21769 1.468069,1.07235 2.871254,2.23968 4.404207,3.21702 3.589444,2.28842 7.555763,3.59795 11.739722,4.19984 0,0 -0.07819,0.46012 -0.07819,0.46012 z"
         inkscape:connector-curvature="0" />
      <path
         style="opacity:1;fill:#000000;fill-opacity:1;fill-rule:nonzero;stroke:none;stroke-width:1.03125;stroke-linecap:round;stroke-linejoin:round;stroke-miterlimit:4;stroke-dasharray:none;stroke-dashoffset:0;stroke-opacity:1"
         id="path9495"
         d="m 130.03749,297.47633 c 1.93949,-5.3631 7.71442,-7.90844 12.44572,-10.2356 9.03688,-3.30864 18.66356,-4.70528 28.27645,-3.95876 7.50554,0.58286 9.60551,1.46412 16.91753,3.3371 7.9416,2.6133 15.60309,6.17114 22.09356,11.53167 3.29289,2.71962 6.60005,6.22688 8.53252,10.11156 0.81598,1.6403 1.12616,3.48674 1.68924,5.23012 -0.0863,1.66095 0.14756,3.37014 -0.25906,4.98287 -1.74392,6.91669 -8.37283,10.65093 -14.82707,12.12641 -1.35038,0.30871 -2.74538,0.37159 -4.11808,0.55737 0,0 -0.0119,-0.45343 -0.0119,-0.45343 v 0 c 1.35646,-0.18355 2.73516,-0.24487 4.06939,-0.55067 1.57585,-0.36118 3.1501,-0.79337 4.63044,-1.44329 4.28829,-1.88269 8.60116,-5.27825 9.85169,-10.0401 0.41521,-1.58109 0.21226,-3.2625 0.31841,-4.89375 -0.5432,-1.72463 -0.83245,-3.55095 -1.6296,-5.17391 -1.89805,-3.86436 -5.18031,-7.3566 -8.44181,-10.05905 -6.45616,-5.34952 -14.08634,-8.89464 -21.9947,-11.50013 -7.28248,-1.8663 -9.37654,-2.74562 -16.85154,-3.32464 -9.56749,-0.7411 -19.15071,0.6505 -28.13965,3.95907 -4.62591,2.28669 -10.38968,4.80568 -12.20631,10.11181 0,0 -0.34517,-0.31465 -0.34517,-0.31465 z"
         inkscape:connector-curvature="0" />
    </g>
    <path
       id="path9515"
       d="m -312.93581,429.99047 c -4.01887,0.0133 -7.93366,-0.70673 -11.63926,-2.4524 -1.58205,-0.74529 -3.0702,-1.69852 -4.60531,-2.54778 -1.49516,-1.19496 -3.12914,-2.21617 -4.48549,-3.5849 -4.64363,-4.686 -7.53228,-10.91598 -8.09832,-17.68757 -0.55455,-6.63417 0.41283,-8.37044 1.95553,-14.66589 1.06195,-2.21762 1.9086,-4.56752 3.18585,-6.65283 4.84896,-7.91672 13.16194,-13.84881 22.08874,-15.0385 2.12771,-0.28348 4.29172,-0.003 6.43758,-0.004 4.38847,0.86953 5.3973,0.72539 9.14626,2.54077 0.61428,0.29746 1.25171,0.62664 1.71048,1.15257 0.16399,0.18801 0.20141,0.7372 -0.038,0.7648 -1.36362,0.1572 -3.1934,-1.75216 -3.95507,-2.36774 -0.73132,-0.98486 -1.62442,-1.85676 -2.19397,-2.95462 -2.27153,-4.37851 -1.98417,-9.22956 0.42366,-13.48752 2.49842,-4.41817 4.96432,-5.53894 8.89839,-8.46624 2.17036,-0.97739 4.25544,-2.19961 6.51107,-2.93218 8.7438,-2.83975 18.34905,-2.1012 26.47832,2.48974 1.4171,0.8003 2.65344,1.91896 3.98017,2.87843 3.08472,3.34911 1.84093,1.66641 3.88811,4.91374"
       style="opacity:1;fill:none;fill-opacity:1;fill-rule:nonzero;stroke:#000000;stroke-width:1.03125;stroke-linecap:round;stroke-linejoin:round;stroke-miterlimit:4;stroke-dasharray:none;stroke-dashoffset:0;stroke-opacity:1"
       inkscape:connector-curvature="0" />
    <path
       id="path9517"
       d="m -254.35145,352.46421 c 1.03678,-5.58954 6.05496,-8.95686 10.13149,-11.9548 7.94971,-4.60234 16.72439,-7.40055 25.79453,-8.07716 7.08178,-0.52829 9.1665,0.0342 16.25344,0.81029 7.78044,1.41561 15.43559,3.8066 22.25826,8.15279 3.46143,2.20501 7.04948,5.18688 9.4101,8.74436 0.99677,1.50213 1.5516,3.28259 2.3274,4.9239 0.15848,1.65537 0.62241,3.31132 0.4753,4.96615 -0.63094,7.09723 -6.27431,11.76607 -12.07977,14.1753 -1.21464,0.50407 -2.50625,0.77159 -3.75938,1.15737"
       style="opacity:1;fill:none;fill-opacity:1;fill-rule:nonzero;stroke:#000000;stroke-width:1.03125;stroke-linecap:round;stroke-linejoin:round;stroke-miterlimit:4;stroke-dasharray:none;stroke-dashoffset:0;stroke-opacity:1"
       inkscape:connector-curvature="0" />
    <path
       sodipodi:nodetypes="csssscccccc"
       inkscape:connector-curvature="0"
       id="path9520"
       d="m -296.06081,503.71048 c -14.91527,7.27636 -31.38498,1.99079 -38.16434,-4.67987 -4.91726,-4.83841 -7.90434,-11.02075 -8.08376,-17.47937 -0.15576,-5.60657 1.69351,-11.27156 5.53056,-16.36693 4.77491,-6.3408 14.4852,-11.87676 25.00196,-12.15896 4.25223,-0.1141 8.60915,-0.29002 12.3765,1.55336 0.99911,0.51412 1.50037,2.32966 -0.37468,1.05789 -2.05118,-1.42596 -4.33387,-4.88827 -4.66295,-6.79713 -2.25033,-7.37744 2.64714,-14.83681 8.92341,-18.425 11.41788,-7.94144 28.55366,-7.66105 38.90847,1.98438 1.36367,1.26819 2.44613,2.72317 3.35859,4.34232"
       style="opacity:1;fill:none;fill-opacity:1;fill-rule:nonzero;stroke:#000000;stroke-width:1.03125;stroke-linecap:round;stroke-linejoin:round;stroke-miterlimit:4;stroke-dasharray:none;stroke-dashoffset:0;stroke-opacity:1" />
    <path
       id="path9522"
       d="m 309.18087,107.83998 c 1.03678,-5.58954 6.05496,-8.956856 10.13149,-11.954796 7.94971,-4.60234 16.72439,-7.40055 25.79453,-8.07716 7.08178,-0.52829 9.1665,0.0342 16.25344,0.81029 7.78044,1.41561 15.43559,3.8066 22.25826,8.15279 3.46143,2.20501 7.04948,5.186876 9.4101,8.744356 0.99677,1.50213 1.5516,3.28259 2.3274,4.9239 0.15848,1.65537 0.62241,3.31132 0.4753,4.96615 -0.63094,7.09723 -6.27431,11.76607 -12.07977,14.1753 -1.21464,0.50407 -2.50625,0.77159 -3.75938,1.15737"
       style="opacity:1;fill:none;fill-opacity:1;fill-rule:nonzero;stroke:#000000;stroke-width:1.03125;stroke-linecap:round;stroke-linejoin:round;stroke-miterlimit:4;stroke-dasharray:none;stroke-dashoffset:0;stroke-opacity:1"
       inkscape:connector-curvature="0" />
    <path
       id="path9524"
       d="m 388.12159,122.83193 c 1.75953,-0.72781 3.66285,-1.10637 5.53107,-1.34879 1.11235,-0.14433 2.22959,-0.34108 3.34967,-0.30383 1.5439,0.0514 3.08776,0.24953 4.60287,0.56835 1.67123,0.35169 3.28561,0.95822 4.92843,1.43734 1.58196,0.77365 3.23949,1.39314 4.74589,2.32096 4.53864,2.79545 8.50308,7.11369 10.45977,12.35344 1.85077,4.95609 1.51152,7.29455 1.70512,12.53415 -0.33874,2.19105 -0.46946,4.42986 -1.01622,6.57316 -1.72029,6.74352 -5.24304,13.09724 -10.39094,17.54325 -4.79842,4.14416 -6.81393,4.2898 -12.64581,6.50493 -2.62148,0.44616 -5.21618,1.13735 -7.86444,1.33849 -8.04261,0.6108 -16.13895,-0.98772 -23.49618,-4.45994 -4.6303,-2.18524 -5.81988,-3.46317 -9.55521,-6.49398 -0.73446,-0.86584 -1.46894,-1.73167 -2.20341,-2.59751"
       style="opacity:1;fill:none;fill-opacity:1;fill-rule:nonzero;stroke:#000000;stroke-width:1.03125;stroke-linecap:round;stroke-linejoin:round;stroke-miterlimit:4;stroke-dasharray:none;stroke-dashoffset:0;stroke-opacity:1"
       inkscape:connector-curvature="0" />
    <path
       inkscape:connector-curvature="0"
       d="m -54.731265,527.75692 c 1.644357,3.83776 4.908685,6.65591 8.518454,8.6233 1.4274,0.77795 2.946085,1.37526 4.419122,2.06289 8.151095,3.03204 16.860255,4.49372 25.565915,4.13494 5.95329,-0.24535 7.7285302,-0.857 13.4331002,-2.05737 4.24442,-1.37133 8.96737,-2.72519 11.90276,-6.38011 0.58716,-0.73109 1.2998298,-1.90027 0.69844,-2.86275 -0.15526,-0.2485 -0.47062,-0.34918 -0.70593,-0.52378 -0.28463,0.0177 -0.6008,-0.0784 -0.85388,0.0531 -0.52512,0.2727 -0.38267,0.93093 -0.16671,1.30503 1.29798,2.24859 3.9748998,3.2642 6.1373398,4.40703 1.40224,0.55878 2.76415,1.23187 4.2067,1.67635 9.20049,2.83483 20.33046,4.1109 29.87962,2.72441 2.24272,-0.32562 4.41618,-1.02012 6.62426,-1.53018 1.73894,-0.84821 3.60297,-1.47743 5.2168,-2.54463 2.43296,-1.60886 4.53251,-3.88028 5.3882,-6.73091 0.62775,-2.09131 -0.0623,-3.18964 -0.71594,-5.03709 0,0 0.34775,-0.30085 0.34775,-0.30085 v 0 c 0.28488,0.77915 0.762,1.51305 0.85463,2.33746 0.49659,4.42043 -2.23688,7.85525 -5.77151,10.16668 -1.63643,1.07012 -3.52123,1.70095 -5.28184,2.55142 -2.2231,0.50962 -4.41183,1.20364 -6.6693,1.52885 -9.589,1.38137 -20.76834,0.10246 -30.00938,-2.73426 -1.45299,-0.44602 -2.82505,-1.12228 -4.23757,-1.68342 -1.7463,-0.91903 -5.5170498,-2.46209 -6.3641898,-4.58484 -0.25333,-0.6348 -0.21055,-1.71202 0.58116,-2.01587 0.32687,-0.12545 0.70023,1.1e-4 1.05034,1.6e-4 0.29305,0.22782 0.7299098,0.34359 0.8791398,0.68344 0.53354,1.21502 -0.15536,2.63119 -0.8998498,3.53029 -3.0209,3.64828 -7.74625,5.03668 -12.05844,6.408 -5.73398,1.2002 -7.5148802,1.81127 -13.4977002,2.05519 -8.74626,0.35658 -17.49534,-1.11048 -25.686212,-4.15194 -1.4859,-0.69178 -3.01755,-1.29276 -4.4577,-2.07533 -3.646716,-1.98158 -6.985285,-4.82887 -8.656444,-8.70318 0,0 0.328865,-0.33195 0.328865,-0.33195 z"
       id="path9530"
       style="opacity:1;fill:#000000;fill-opacity:1;fill-rule:nonzero;stroke:none;stroke-width:1.03125;stroke-linecap:round;stroke-linejoin:round;stroke-miterlimit:4;stroke-dasharray:none;stroke-dashoffset:0;stroke-opacity:1" />
    <path
       id="path9536"
       d="m 94.371249,522.11024 c 1.644357,3.83776 4.908685,6.65591 8.518451,8.6233 1.4274,0.77795 2.94609,1.37526 4.41913,2.06289 8.15109,3.03204 16.86025,4.49372 25.56591,4.13494 5.95329,-0.24535 7.72853,-0.857 13.4331,-2.05737 4.24442,-1.37133 8.96737,-2.72519 11.90276,-6.38011 0.58716,-0.73109 1.29983,-1.90027 0.69844,-2.86275 -0.15526,-0.2485 -0.47062,-0.34918 -0.70593,-0.52378 -0.28463,0.0177 -0.6008,-0.0784 -0.85388,0.0531 -0.52512,0.2727 -0.38267,0.93093 -0.16671,1.30503 1.29798,2.24859 3.9749,3.2642 6.13734,4.40703 1.40224,0.55878 2.76415,1.23187 4.2067,1.67635 9.20049,2.83483 20.33046,4.1109 29.87962,2.72441 2.24272,-0.32562 4.41618,-1.02012 6.62426,-1.53018 1.73894,-0.84821 3.60297,-1.47743 5.2168,-2.54463 2.43296,-1.60886 4.53251,-3.88028 5.3882,-6.73091 0.62775,-2.09131 -0.0623,-3.18964 -0.71594,-5.03709"
       style="opacity:1;fill:none;fill-opacity:1;fill-rule:nonzero;stroke:#000000;stroke-width:1.03125;stroke-linecap:round;stroke-linejoin:round;stroke-miterlimit:4;stroke-dasharray:none;stroke-dashoffset:0;stroke-opacity:1"
       inkscape:connector-curvature="0" />
    <path
       inkscape:connector-curvature="0"
       id="path9542"
       d="m 10.602111,514.37776 c -0.8567393,0.26717 -0.6983403,1.01738 -0.395148,1.45384 1.822274,2.62344 5.946535,3.9645 9.245573,5.41008 2.157674,0.73257 4.240135,1.59056 6.473024,2.19771 14.241238,3.87237 31.686718,6.13744 46.905188,5.29285 3.57421,-0.19836 7.07635,-0.81634 10.61451,-1.22451 2.83155,-0.82315 5.8385,-1.3909 8.49463,-2.46945 4.00432,-1.62596 7.54913,-4.02127 9.188422,-7.16027 1.2026,-2.30288 0.22401,-3.58848 -0.62138,-5.71306"
       style="opacity:1;fill:none;fill-opacity:1;fill-rule:nonzero;stroke:#000000;stroke-width:1.03125;stroke-linecap:round;stroke-linejoin:round;stroke-miterlimit:4;stroke-dasharray:none;stroke-dashoffset:0;stroke-opacity:1" />
    <path
       sodipodi:nodetypes="csssscccccc"
       inkscape:connector-curvature="0"
       id="path9546"
       d="m -296.06081,535.53029 c -13.74339,5.16698 -31.38498,1.05329 -38.16434,-5.61737 -4.91726,-4.83841 -7.90434,-9.14575 -8.08376,-15.60437 -0.15576,-5.60657 1.69351,-11.27156 5.53056,-16.36693 4.77491,-6.3408 14.4852,-11.64238 25.00196,-12.62771 4.23521,-0.3968 8.60915,-0.75877 12.3765,1.08461 0.99911,0.51412 1.50037,2.32966 -0.37468,1.05789 -2.05118,-1.42596 -4.33387,-4.88827 -4.66295,-6.79713 -2.25033,-7.37744 2.64714,-14.83681 8.92341,-18.425 11.41788,-7.94144 28.55366,-7.66105 38.90847,1.98438 1.36367,1.26819 2.44613,2.72317 3.35859,4.34232"
       style="opacity:1;fill:none;fill-opacity:1;fill-rule:nonzero;stroke:#000000;stroke-width:1.03125;stroke-linecap:round;stroke-linejoin:round;stroke-miterlimit:4;stroke-dasharray:none;stroke-dashoffset:0;stroke-opacity:1" />
    <path
       sodipodi:nodetypes="ccscscscccsssssc"
       inkscape:connector-curvature="0"
       id="path9548"
       d="m -254.35145,469.13684 c 1.03678,-5.58954 6.05496,-8.95686 10.13149,-11.9548 7.94971,-4.60234 16.72439,-7.40055 25.79453,-8.07716 7.08178,-0.52829 9.1665,0.0342 16.25344,0.81029 7.78044,1.41561 15.43559,3.8066 22.25826,8.15279 3.46143,2.20501 7.04948,5.18688 9.4101,8.74436 0.99677,1.50213 1.8324,3.17726 2.3274,4.9239 0.45342,1.59993 0.62241,3.31132 0.4753,4.96615 -0.28151,3.16666 -1.56089,5.84987 -3.40731,8.06464 0.30317,-0.16745 -0.19204,-0.93364 -0.14273,-1.78297 4.19383,-0.3998 9.28065,0.40767 13.49291,1.80357 9.51728,3.15393 17.11304,9.48805 19.89463,20.77747 1.6803,6.81967 -0.84404,16.80294 -4.68988,21.86292 -4.42339,5.81986 -12.22863,10.58533 -19.3426,12.56757 -9.00263,2.5085 -20.35123,1.834 -28.19585,-0.19828 -6.18003,-1.60104 -10.92019,-3.20187 -15.99649,-6.41721"
       style="opacity:1;fill:none;fill-opacity:1;fill-rule:nonzero;stroke:#000000;stroke-width:1.03125;stroke-linecap:round;stroke-linejoin:round;stroke-miterlimit:4;stroke-dasharray:none;stroke-dashoffset:0;stroke-opacity:1" />
    <path
       sodipodi:nodetypes="cssssssc"
       style="opacity:1;fill:none;fill-opacity:1;fill-rule:nonzero;stroke:#000000;stroke-width:1.03125;stroke-linecap:round;stroke-linejoin:round;stroke-miterlimit:4;stroke-dasharray:none;stroke-dashoffset:0;stroke-opacity:1"
       d="m -292.86909,534.70001 c 4.97611,4.49964 8.63419,6.92193 13.90629,9.60234 2.34105,1.19023 5.10967,2.20481 7.36045,2.88968 12.40107,3.77345 24.0306,5.05415 36.7501,3.91383 8.69812,-0.7798 14.82335,-2.24773 19.46521,-3.93276 6.02527,-2.18722 13.6777,-6.09448 16.75858,-9.56956 0.82157,-0.92669 1.70096,-2.4781 0.71634,-3.63312 -0.2542,-0.2982 -0.72717,-0.39896 -1.09075,-0.59844"
       id="path9550"
       inkscape:connector-curvature="0" />
    <path
       sodipodi:nodetypes="csssssc"
       inkscape:connector-curvature="0"
       id="path9558"
       d="m -144.89145,667.60272 c -1.79361,1.2325 -4.82875,2.39315 -6.97719,3.06281 -14.40331,4.48949 -32.00736,0.16082 -38.95642,-6.67558 -5.26701,-5.18161 -8.46657,-9.79449 -8.65875,-16.71124 -0.16683,-6.00426 1.81397,-12.07109 5.92394,-17.52789 5.11455,-6.79057 15.51551,-12.46821 26.7803,-13.52343 4.53647,-0.42495 9.22152,-0.8126 13.25683,1.16154"
       style="opacity:1;fill:none;fill-opacity:1;fill-rule:nonzero;stroke:#000000;stroke-width:1.03125;stroke-linecap:round;stroke-linejoin:round;stroke-miterlimit:4;stroke-dasharray:none;stroke-dashoffset:0;stroke-opacity:1" />
    <path
       inkscape:connector-curvature="0"
       id="path9560"
       d="m -156.93609,619.58808 c 1.02865,0.52952 1.54474,2.39945 -0.38577,1.08958 -2.11184,-1.46867 -4.46204,-5.03469 -4.80085,-7.00073 -2.31688,-7.59843 2.72542,-15.28124 9.18731,-18.97691 11.75556,-8.17932 29.39811,-7.89054 40.05915,2.04382 1.404,1.30618 2.51847,2.80474 3.45792,4.47239"
       style="opacity:1;fill:none;fill-opacity:1;fill-rule:nonzero;stroke:#000000;stroke-width:1.03125;stroke-linecap:round;stroke-linejoin:round;stroke-miterlimit:4;stroke-dasharray:none;stroke-dashoffset:0;stroke-opacity:1" />
  </g>
  <g
     inkscape:groupmode="layer"
     id="layer14"
     inkscape:label="hidden"
     style="display:inline"
     transform="translate(98.795749,41.128762)">
    <path
       style="opacity:1;fill:#d5f6ff;fill-opacity:1;stroke:#000000;stroke-width:1;stroke-linecap:butt;stroke-linejoin:miter;stroke-miterlimit:4;stroke-dasharray:none;stroke-dashoffset:0;stroke-opacity:0.826471"
       d="m 93.222023,-346.66705 c -4.18144,3.58787 -8.89712,6.035 -13.63042,8.30836 -6.11577,2.73737 -12.47231,4.62942 -18.90843,5.84338 -4.43133,0.83579 -6.5766,1.00765 -11.04035,1.53046 -7.78357,0.63433 -15.67986,0.89139 -23.415434,-0.60029 -1.069383,-0.20623 -2.124384,-0.51103 -3.18656,-0.76654 -1.806148,-0.589 -6.586222,-2.2403 -6.033893,-5.68383 0.07267,-0.45284 0.305928,-0.84431 0.458881,-1.26647 0.969789,-1.08807 2.613754,-2.60035 4.065035,-2.03177 0.189545,0.0742 0.338395,0.25552 0.507593,0.38329 0.07709,0.23859 0.231057,0.45934 0.231427,0.71574 0.0038,2.42852 -3.147054,4.15161 -4.579205,5.02186 -4.88948,2.44145 -10.1996443,2.42588 -15.3910983,2.228 -4.512943,-0.5767 -9.275302,-1.07315 -13.4616137,-3.41071 -0.54321,-0.30332 -1.045665,-0.70472 -1.568513,-1.0571 -0.345028,-0.35721 -0.745639,-0.64758 -1.035075,-1.07164 -1.363688,-1.99782 -0.02976,-3.74306 1.337035,-4.83205 0.332336,-0.28141 2.075235,-0.9705 1.61986,0.33755 -0.10303,0.22437 -1.058597,0.86659 -1.195237,0.96983 -3.365032,2.19546 -7.066313,2.87611 -10.770465,3.41362 -5.163772,0.3751 -10.391708,-0.0897 -15.401399,-1.80817 -0.994472,-0.34113 -1.965941,-0.78395 -2.948914,-1.17593 -5.274761,-2.39443 -10.097588,-6.41418 -13.774017,-11.85246 -0.71426,-1.05657 -1.330421,-2.21557 -1.995631,-3.32336 -1.902411,-3.71305 -3.732931,-7.61348 -3.900973,-12.33769 -0.08231,-2.314 0.04173,-3.06288 0.198475,-5.34665 0.320619,-4.67132 2.478033,-10.1619 5.431211,-14.46136 5.278264,-7.68447 17.722373,-14.2343 28.899489,-8.38248 -2.852378,2.12833 -2.871475,-3.00277 -2.871475,-3.00277 -0.04347,-0.30797 0.01287,-1.02724 0.141432,-1.51974 1.377776,-5.27808 7.071818,-8.18009 11.488466,-10.27673 9.2334691,-4.38326 20.0236907,-6.78347 30.183435,-7.63746 2.124694,-0.17867 4.260266,-0.18354 6.390417,-0.27521 7.315098,0.21109 14.885827,0.9244 21.548357,4.22697 3.35743,1.66427 3.86678,2.38984 6.57906,4.74289 2.03344,2.29538 6.27574,6.49246 4.46309,10.03117 -0.21137,0.41267 -0.62751,0.68225 -0.94126,1.02337 -1.41465,0.80247 -3.27984,0.96517 -4.15784,-0.72124 -0.53986,-1.03689 -0.2827,-1.59708 -0.15695,-2.73345 0.24147,-0.45618 0.42272,-0.94988 0.72445,-1.36851 2.44304,-3.38976 7.58057,-4.39318 11.35685,-5.25826 6.10233,-0.93698 12.36336,-0.51921 18.3696,0.86606 1.13127,0.26094 2.2389,0.61542 3.35831,0.92313 3.86379,1.30321 7.91244,3.03073 10.46012,6.38285 0.2913,0.38331 0.51732,0.81228 0.77599,1.21841 0.26676,0.736 0.80335,1.96518 -0.20493,2.59643 -0.72605,0.46468 -1.53175,-0.19617 -2.00381,-0.54722 -0.14068,-0.18645 -0.32405,-0.33608 -0.42203,-0.55934 -1.05255,-2.39864 4.13081,-3.8411 5.07184,-4.18515 6.114477,-1.92268 12.484327,-2.26237 18.764357,-1.69008 1.64279,0.14973 3.27679,0.41851 4.91516,0.62777 8.20919,1.39772 16.22089,4.65793 23.10655,10.3737 1.2529,1.04001 2.40854,2.24373 3.61282,3.3656 3.81398,4.28321 7.24636,9.44336 7.91722,15.93479 0.38597,3.7347 -0.0931,4.75372 -0.78723,8.37629 -0.49415,1.25974 -0.89396,2.58108 -1.48247,3.77921 -2.31313,4.7091 -5.97875,8.08327 -10.05515,10.26665 -0.92564,0.49577 -1.89536,0.85948 -2.84303,1.28923 -2.90942,1.03406 -6.701,2.35638 -9.46287,-0.016 -0.25823,-0.22181 -0.44439,-0.54712 -0.66659,-0.8207 -0.0652,-0.28216 -0.22419,-0.55548 -0.19556,-0.84653 0.19929,-2.02539 2.624,-1.7299 3.7262,-1.41783 0.48513,0.13736 0.94478,0.38442 1.41716,0.57662 1.91262,1.13538 3.53014,2.95247 3.70124,5.69233 0.11961,1.91556 -0.25897,2.46913 -0.82445,4.27959 -0.44231,0.67118 -0.82386,1.40907 -1.32698,2.01351 -4.01552,4.82391 -10.06416,5.95209 -15.35374,7.09272 -6.29647,1.02035 -12.71958,1.1318 -18.973297,-0.39069 -3.98913,-0.97115 -4.66359,-1.5114 -8.36398,-3.27109 -3.69911,-2.01352 -6.86593,-4.97868 -9.79384,-8.32787"
       id="path344991"
       inkscape:connector-curvature="0"
       sodipodi:nodetypes="ccsccccccccccsccccccscscssscsssccscscscccccccccccccscscsccsccccscccscc" />
    <text
       xml:space="preserve"
       style="font-style:normal;font-weight:normal;font-size:37.5px;line-height:125%;font-family:sans-serif;letter-spacing:0px;word-spacing:0px;fill:#000000;fill-opacity:1;stroke:none;stroke-width:0.9375px;stroke-linecap:butt;stroke-linejoin:miter;stroke-opacity:1"
       x="112.01048"
       y="-129.65829"
       id="text8036" />
    <path
       style="display:inline;opacity:1;fill:#d5f6ff;fill-opacity:1;fill-rule:nonzero;stroke:#000000;stroke-width:1.03125;stroke-linecap:round;stroke-linejoin:round;stroke-miterlimit:4;stroke-dasharray:none;stroke-dashoffset:0;stroke-opacity:1"
       d="m 1067.3827,423.80562 c -0.2015,0.0993 -1.5639,0.81808 -1.7671,0.91342 -11.8628,5.56601 -26.5177,4.39547 -37.4707,-2.72457 -10.6588,-6.92885 -14.0404,-23.04001 -7.3519,-34.58208 6.4444,-11.12085 17.4142,-17.679 28.9358,-20.90803 9.7307,-2.72715 20.8131,-4.02933 30.3594,-0.49702 1.6418,0.59899 0.036,1.21375 -0.9809,0.62391 0.043,-0.29831 0.1213,-0.61281 0.2403,-0.94387 2.9753,-8.27927 11.0574,-12.52327 18.3552,-15.41266 17.2186,-6.81726 36.9658,-8.36185 54.6426,-2.39153 6.6542,2.24746 14.1589,6.73298 15.804,14.33108 0.5091,2.35096 0.054,5.26081 -1.5715,7.08732 -0.8754,0.97191 -6.0263,-0.24505 -0.8591,-0.69037 2.1506,-0.1468 4.6294,-0.0947 7.2866,0.0582 5.2284,0.3008 11.4848,1.33553 16.6254,3.25269 11.6146,4.33168 20.6463,12.11129 23.3946,25.11802 0.4649,2.19997 0.5052,4.65449 0.2159,7.16825 -0.6591,5.69831 -3.2161,11.74402 -6.3554,15.19638 -5.2507,5.51501 -14.1916,9.75229 -22.2016,11.25728 -10.1366,1.90455 -22.6886,0.47548 -31.2728,-2.07559 -1.1166,-0.33184 -2.0502,-0.62147 -2.8872,-0.89783 -1.7731,-0.46423 2.6924,-1.15619 1.2044,-0.22035 -3.477,3.49291 -9.6592,6.96693 -14.6622,9.02691 -4.4156,1.81816 -10.2423,3.40207 -18.5165,4.24348 -12.0996,1.23041 -24.2636,-0.36147 -34.7226,-4.55949 -2.1098,-0.84683 -4.6632,-1.89196 -6.8902,-3.17623 -5.0152,-2.89218 -8.8429,-5.11116 -13.5765,-9.96631"
       id="path9647"
       inkscape:connector-curvature="0"
       sodipodi:nodetypes="cssssccssccccsccccssccssccc" />
    <path
       sodipodi:nodetypes="ccsssccccccccccscsccscccscssccscssccc"
       inkscape:connector-curvature="0"
       id="path9573"
       d="m 296.50573,-332.45157 c -1.79361,1.2325 -4.82874,2.39315 -6.97718,3.06281 -14.40332,4.48949 -32.00737,0.16082 -38.95643,-6.67558 -5.26701,-5.18161 -8.46656,-9.79449 -8.65874,-16.71124 -0.16683,-6.00426 1.81397,-12.07109 5.92394,-17.52789 5.11454,-6.79057 15.51551,-12.46821 26.7803,-13.52343 2.48003,-0.23232 5.00447,-0.45348 7.44288,-0.28371 1.94069,2.42047 1.19246,3.32581 -1.68669,0.34081 -0.44109,-0.64796 -0.1665,-0.19336 -0.46875,-0.8188 -0.31939,-0.66091 -0.54268,-1.27868 -0.63058,-1.78876 -2.31688,-7.59843 2.72542,-15.28124 9.18731,-18.97691 11.75555,-8.17932 29.39811,-7.89054 40.05915,2.04382 1.404,1.30618 2.51847,2.80474 3.45792,4.47239 l -0.46332,0.68627 c 1.74112,-4.47088 6.05496,-8.95686 10.13149,-11.9548 7.94971,-4.60234 16.72439,-7.40055 25.79453,-8.07716 7.08178,-0.52829 9.1665,0.0342 16.25344,0.81029 7.78044,1.41561 15.43559,3.8066 22.25826,8.15279 3.46143,2.20501 7.04948,5.18688 9.4101,8.74436 0.99677,1.50213 1.8324,3.17726 2.3274,4.9239 0.45342,1.59993 0.62241,3.31132 0.4753,4.96615 -0.28151,3.16666 -1.56089,5.84987 -3.40731,8.06464 0.30317,-0.16745 -0.19204,-0.93364 -0.14273,-1.78297 h 1.34678 c 4.02733,-0.3998 8.91219,0.40767 12.95722,1.80357 9.13942,3.15393 16.43362,9.48805 19.10477,20.77747 1.61359,6.81967 -0.81053,16.80294 -4.50368,21.86292 -4.24777,5.81986 -11.74313,10.58533 -18.57466,12.56757 -8.64521,2.5085 -19.54325,1.834 -27.07642,-0.19828 -3.52118,-0.94994 -4.97635,-1.49739 -7.8338,-2.78927 0.006,-0.95724 0.0565,-1.47062 1.12204,-0.89562 0.35377,0.19089 0.87711,0.56445 0.0212,1.49114 -3.20971,3.47508 -11.18213,7.38234 -17.45935,9.56956 -4.83597,1.68503 -11.21733,3.15296 -20.27917,3.93276 -13.25138,1.14032 -26.57328,-0.335 -38.02786,-4.22563 -2.31064,-0.78483 -5.1072,-1.75343 -7.54615,-2.94366 -5.49255,-2.68041 -9.68468,-4.73692 -14.86887,-9.23656"
       style="display:inline;opacity:1;fill:#d5f6ff;fill-opacity:1;fill-rule:nonzero;stroke:#000000;stroke-width:1.03125;stroke-linecap:round;stroke-linejoin:round;stroke-miterlimit:4;stroke-dasharray:none;stroke-dashoffset:0;stroke-opacity:1" />
    <path
       id="path9580"
       d="m -219.32112,143.75366 c -3.91915,-0.14229 -7.84773,-0.29837 -11.74479,-0.76497 -3.66352,-0.43864 -5.12265,-0.77004 -8.80563,-1.44854 -8.15905,-1.90198 -16.57424,-4.28317 -23.39465,-9.37423 -1.30615,-0.97497 -2.46189,-2.1367 -3.69284,-3.20504 -1.00557,-1.23325 -2.14166,-2.37069 -3.01669,-3.69976 -3.8535,-5.85309 -5.0625,-13.30017 -3.34206,-20.09168 0.47896,-1.89068 1.37893,-3.64896 2.06838,-5.473438 1.15745,-1.77693 2.13926,-3.68153 3.47233,-5.33078 3.46713,-4.28952 6.79351,-6.74048 11.56677,-9.58531 4.50757,-2.68649 10.72817,-5.54157 15.78747,-6.93169 3.13476,-0.86135 6.38325,-1.23642 9.57488,-1.85463 7.80676,-0.89419 15.6957,-0.81935 23.33484,1.17601 2.01859,0.52727 4.82194,1.53036 6.58607,2.9038 0.38867,0.3026 0.60732,0.77569 0.91097,1.16354 -0.1367,0.39984 -0.0909,0.92265 -0.41009,1.19953 -0.38982,0.33808 -0.96955,0.39515 -1.48335,0.44269 -2.27795,0.21077 -4.89162,-0.53354 -5.716,-2.95197 -0.3181,-0.93321 -0.13583,-1.9672 -0.20374,-2.95079 0.51725,-1.25186 0.80956,-2.6225 1.55174,-3.75558 2.05197,-3.13269 5.59987,-5.70939 8.72895,-7.52727 4.7229,-2.74386 10.55118,-5.02684 15.76545,-6.49511 3.20067,-0.90127 6.49005,-1.45101 9.73506,-2.17652 10.16173,-1.59965 20.49009,-1.92806 30.65704,-0.13929 5.51643,0.97057 10.86163,2.50383 15.77008,5.26066 1.85402,1.0413 3.43791,2.50351 5.15687,3.75527 1.07524,1.33505 2.36398,2.52328 3.22573,4.00513 2.00526,3.44818 2.19924,8.56298 -1.02107,11.36849 -0.33874,0.29512 -0.79084,0.42651 -1.18626,0.63977"
       style="display:inline;opacity:1;fill:none;fill-opacity:1;fill-rule:nonzero;stroke:#000000;stroke-width:1.03125;stroke-linecap:round;stroke-linejoin:round;stroke-miterlimit:4;stroke-dasharray:none;stroke-dashoffset:0;stroke-opacity:1"
       inkscape:connector-curvature="0" />
    <path
       sodipodi:nodetypes="cssssssssc"
       inkscape:connector-curvature="0"
       id="path9597"
       d="m -340.99429,449.42346 c -13.04973,7.26625 -30.25984,6.53909 -42.85532,-1.17899 -11.30749,-6.92885 -14.8949,-23.04001 -7.79937,-34.58208 6.83659,-11.12085 18.47404,-17.679 30.6967,-20.90803 11.93726,-3.15363 25.79198,-4.40177 36.82694,1.52792 7.91496,4.25314 -8.00439,4.6242 -5.41276,-2.3449 3.07886,-8.27927 11.4421,-12.52327 18.99382,-15.41266 17.81761,-6.81726 38.25184,-8.36185 56.54361,-2.39153 6.88573,2.24746 14.65146,6.73298 16.35386,14.33108 0.68723,3.06723 -0.32303,7.0858 -3.50769,8.40866"
       style="display:inline;opacity:1;fill:#d5f6ff;fill-opacity:1;fill-rule:nonzero;stroke:#000000;stroke-width:1.03125;stroke-linecap:round;stroke-linejoin:round;stroke-miterlimit:4;stroke-dasharray:none;stroke-dashoffset:0;stroke-opacity:1" />
    <path
       id="path9599"
       d="m -349.03823,376.52076 c 11.75556,-8.17932 29.39811,-7.89054 40.05915,2.04382 1.404,1.30618 2.51847,2.80474 3.45792,4.47239 l -0.46332,0.68627 c 1.74112,-4.47088 6.05496,-8.95686 10.13149,-11.9548 7.94971,-4.60234 16.72439,-7.40055 25.79453,-8.07716 7.08178,-0.52829 9.1665,0.0342 16.25344,0.81029 7.78044,1.41561 15.43559,3.8066 22.25826,8.15279 3.46143,2.20501 7.04948,5.18688 9.4101,8.74436 0.99677,1.50213 1.8324,3.17726 2.3274,4.9239 0.45342,1.59993 0.62241,3.31132 0.4753,4.96615 -0.28151,3.16666 -1.56089,5.84987 -3.40731,8.06464 0.30317,-0.16745 -0.19204,-0.93364 -0.14273,-1.78297 h 1.34678 c 4.02733,-0.3998 8.91219,0.40767 12.95722,1.80357 9.13942,3.15393 16.43362,9.48805 19.10477,20.77747 1.61359,6.81967 -0.81053,16.80294 -4.50368,21.86292 -4.24777,5.81986 -11.74313,10.58533 -18.57466,12.56757 -8.64521,2.5085 -19.54325,1.834 -27.07642,-0.19828 -3.52118,-0.94994 -4.97635,-1.49739 -7.8338,-2.78927"
       style="display:inline;opacity:1;fill:none;fill-opacity:1;fill-rule:nonzero;stroke:#000000;stroke-width:1.03125;stroke-linecap:round;stroke-linejoin:round;stroke-miterlimit:4;stroke-dasharray:none;stroke-dashoffset:0;stroke-opacity:1"
       inkscape:connector-curvature="0" />
    <path
       inkscape:connector-curvature="0"
       id="path9601"
       d="m -254.92723,450.81059 c 0.33,0.20597 0.81817,0.60905 0.0198,1.60895 -2.99401,3.74964 -10.43066,7.9656 -16.28605,10.32562 -4.51098,1.81816 -10.46351,3.40207 -18.91637,4.24348 -12.36087,1.23041 -24.78752,-0.36147 -35.47233,-4.55949 -2.15536,-0.84683 -4.76399,-1.89196 -7.03903,-3.17623 -5.12345,-2.89218 -9.03385,-5.11116 -13.86966,-9.96631"
       style="display:inline;opacity:1;fill:none;fill-opacity:1;fill-rule:nonzero;stroke:#000000;stroke-width:1.03125;stroke-linecap:round;stroke-linejoin:round;stroke-miterlimit:4;stroke-dasharray:none;stroke-dashoffset:0;stroke-opacity:1" />
    <path
       sodipodi:nodetypes="cssssssssc"
       inkscape:connector-curvature="0"
       id="path9607"
       d="m -87.365827,451.33472 c -13.049733,7.26625 -30.259843,6.53909 -42.855323,-1.17899 -11.30749,-6.92885 -14.89491,-23.04002 -7.79937,-34.58209 6.83659,-11.12085 18.47404,-17.67899 30.6967,-20.90802 11.937261,-3.15363 25.791975,-4.40178 36.826939,1.52792 7.91496,4.25314 -8.004388,4.62419 -5.412756,-2.3449 3.078854,-8.27928 11.442095,-12.52327 18.993816,-15.41266 17.817606,-6.81727 38.251836,-8.36185 56.54360581,-2.39153 6.88572999,2.24746 14.65146019,6.73298 16.35386019,14.33108 0.68723,3.06723 -0.32303,7.0858 -3.50769,8.40866"
       style="display:inline;opacity:1;fill:#d5f6ff;fill-opacity:1;fill-rule:nonzero;stroke:#000000;stroke-width:1.03125;stroke-linecap:round;stroke-linejoin:round;stroke-miterlimit:4;stroke-dasharray:none;stroke-dashoffset:0;stroke-opacity:1" />
    <path
       sodipodi:nodetypes="cccccscsccscccsscsssccccsccc"
       inkscape:connector-curvature="0"
       id="path9609"
       d="m -95.409769,378.43202 c 11.755555,-8.17932 29.398108,-7.89054 40.059148,2.04382 1.404,1.30618 2.51847,2.80474 3.45792,4.47239 l -0.46332,0.68627 c 1.74112,-4.47088 6.05496,-8.95686 10.13149,-11.9548 7.94971,-4.60234 16.72439,-7.40055 25.79453,-8.07716 7.0817798,-0.52829 9.1664998,0.0342 16.25343981,0.81029 7.78043999,1.41561 15.43559019,3.8066 22.25826019,8.15279 3.46143,2.20501 7.04948,5.18688 9.4101,8.74436 0.99677,1.50213 1.8324,3.17726 2.3274,4.9239 0.45342,1.59993 0.62241,3.31132 0.4753,4.96615 -0.28151,3.16666 -1.56089,5.84987 -3.40731,8.06464 0.30317,-0.16745 -0.19204,-0.93364 -0.14273,-1.78297 h 1.34678 c 4.02733,-0.3998 8.91219,0.40767 12.95722,1.80357 9.13942,3.15393 16.43362,9.48805 19.10477,20.77747 0.4518,1.9095 0.58705,4.06703 0.4669,6.29505 -0.3614,5.72925 -2.69737,11.92468 -5.80125,15.56787 -4.95834,5.81986 -13.70753,10.58533 -21.68184,12.56757 -10.09139,2.5085 -22.81246,1.834 -31.6057802,-0.19828 -4.11021,-0.94994 -5.80879999,-1.49739 -9.14425,-2.78927 -0.18598,-0.71181 -1.08388,-2.38806 2.31422,-0.78383 0.33000001,0.20597 0.81817001,0.60905 0.0198,1.60895 -2.99401,3.74964 -10.4306598,7.9656 -16.2860498,10.32562 -4.51098,1.81816 -10.46351,3.40207 -18.91637,4.24348 -12.36087,1.23041 -24.78752,-0.36147 -35.472329,-4.55949 -2.155362,-0.84683 -4.763989,-1.89196 -7.039033,-3.17623 -5.123445,-2.89218 -9.033851,-5.11116 -13.869657,-9.96631"
       style="display:inline;opacity:1;fill:none;fill-opacity:1;fill-rule:nonzero;stroke:#000000;stroke-width:1.03125;stroke-linecap:round;stroke-linejoin:round;stroke-miterlimit:4;stroke-dasharray:none;stroke-dashoffset:0;stroke-opacity:1" />
    <path
       sodipodi:nodetypes="csssscsscsccsscccsscccssccc"
       inkscape:connector-curvature="0"
       id="path9637"
       d="m 330.46044,424.74603 c -12.69504,5.8963 -28.57645,4.80936 -40.39498,-2.43263 -11.3075,-6.92885 -14.89491,-23.04002 -7.79937,-34.58209 6.83658,-11.12085 18.47403,-17.67899 30.6967,-20.90802 11.93726,-3.15364 25.79197,-4.40178 36.82694,1.52792 4.20299,2.25849 1.68516,3.42232 -1.15638,2.97367 -2.56744,-0.39624 -5.49532,-2.0502 -4.24928,-5.31857 3.15642,-8.27928 11.73033,-12.52327 19.47228,-15.41266 18.26643,-6.81727 39.2154,-8.36185 57.96796,-2.39153 7.05917,2.24746 15.02052,6.73298 16.7658,14.33108 0.70454,3.06723 -0.33117,7.0858 -3.59605,8.40866 -2.65119,1.54141 -6.80613,-1.14324 -0.816,-1.83915 2.65531,-0.34067 5.95419,-0.31012 9.56356,-0.11438 5.54651,0.3008 12.18372,1.33552 17.63708,3.25269 12.32141,4.33168 21.90277,12.11129 24.81835,25.11802 0.49314,2.19997 0.5359,4.65449 0.22904,7.16825 -0.69924,5.69831 -3.41179,11.74402 -6.74217,15.19638 -5.32014,5.51501 -14.37924,9.75229 -22.49508,11.25728 -10.27049,1.90455 -22.98833,0.4755 -31.68595,-2.07559 -4.06548,-1.19244 -5.73634,-1.83984 -9.07758,-3.2848 -0.2585,-0.66902 -1.15317,-2.34527 2.23269,-0.74104 0.32881,0.20597 0.81522,0.60905 0.0197,1.60895 -2.98322,3.74964 -10.39309,7.9656 -16.22738,10.32562 -4.49474,1.81816 -10.42583,3.40207 -18.84824,4.24348 -12.31634,1.23041 -24.69823,-0.36147 -35.34455,-4.55949 -2.1476,-0.84683 -4.74683,-1.89196 -7.01368,-3.17623 -5.10499,-2.89218 -9.00131,-5.11116 -13.81969,-9.96631"
       style="display:inline;opacity:1;fill:#d5f6ff;fill-opacity:1;fill-rule:nonzero;stroke:#000000;stroke-width:1.03125;stroke-linecap:round;stroke-linejoin:round;stroke-miterlimit:4;stroke-dasharray:none;stroke-dashoffset:0;stroke-opacity:1" />
    <path
       sodipodi:nodetypes="csssscsscsccsscccsscccssccc"
       inkscape:connector-curvature="0"
       id="path9639"
       d="m 567.46039,420.76855 c -11.96678,5.8963 -26.93716,4.80936 -38.07772,-2.43263 -10.65884,-6.92885 -14.04046,-23.04001 -7.35196,-34.58209 6.4444,-11.12084 17.41427,-17.67899 28.93578,-20.90802 11.25248,-3.15363 24.31242,-4.40177 34.71436,1.52792 3.96189,2.2585 1.58849,3.42232 -1.09004,2.97367 -2.42015,-0.39624 -5.18008,-2.0502 -4.00551,-5.31857 2.97534,-8.27927 11.05741,-12.52327 18.35524,-15.41266 17.21856,-6.81726 36.96579,-8.36185 54.64261,-2.39153 6.65422,2.24746 14.15887,6.73298 15.80403,14.33108 0.66412,3.06723 -0.31217,7.0858 -3.38976,8.40866 -2.49911,1.54142 -6.41569,-1.14323 -0.76919,-1.83915 2.50299,-0.34066 5.61263,-0.31011 9.01495,-0.11437 5.22832,0.30079 11.48479,1.33552 16.62533,3.25268 11.61458,4.33169 20.64631,12.1113 23.39464,25.11803 0.46484,2.19996 0.50515,4.65448 0.2159,7.16824 -0.65913,5.69831 -3.21608,11.74402 -6.35541,15.19638 -5.01495,5.51501 -13.55437,9.75229 -21.20465,11.25728 -9.68132,1.90455 -21.6696,0.4755 -29.86828,-2.07559 -3.83226,-1.19244 -5.40727,-1.83984 -8.55685,-3.2848 -0.24367,-0.66902 -1.08702,-2.34527 2.10462,-0.74104 0.30995,0.20597 0.76845,0.60905 0.0186,1.60895 -2.81209,3.74964 -9.79689,7.9656 -15.2965,10.32562 -4.2369,1.81816 -9.82775,3.40207 -17.76701,4.24348 -11.60981,1.23041 -23.28139,-0.36147 -33.31699,-4.55949 -2.0244,-0.84683 -4.47452,-1.89196 -6.61134,-3.17623 -4.81214,-2.89218 -8.48494,-5.11116 -13.02692,-9.96631"
       style="display:inline;opacity:1;fill:#d5f6ff;fill-opacity:1;fill-rule:nonzero;stroke:#000000;stroke-width:1.03125;stroke-linecap:round;stroke-linejoin:round;stroke-miterlimit:4;stroke-dasharray:none;stroke-dashoffset:0;stroke-opacity:1" />
    <path
       sodipodi:nodetypes="csssscssccccsccccssccssccc"
       inkscape:connector-curvature="0"
       id="path9649"
       d="m 811.22264,422.5521 c -11.96678,5.8963 -26.93716,4.80936 -38.07772,-2.43263 -10.65884,-6.92885 -14.04046,-23.04001 -7.35196,-34.58208 6.44441,-11.12085 17.41427,-17.679 28.93578,-20.90803 11.25248,-3.15363 24.31242,-4.40177 34.71436,1.52792 3.96189,2.2585 1.5885,3.42232 -1.09003,2.97367 -2.42016,-0.39624 -5.18008,-2.05019 -4.00552,-5.31857 2.97534,-8.27927 11.05741,-12.52327 18.35524,-15.41266 17.21856,-6.81726 36.96579,-8.36185 54.64261,-2.39153 6.65422,2.24746 14.15887,6.73298 15.80403,14.33108 0.50903,2.35096 0.0543,5.26081 -1.57158,7.08732 -0.70961,1.2205 -4.28611,-0.28648 -0.85907,-0.69037 2.15063,-0.1468 4.62938,-0.0947 7.28665,0.0582 5.22832,0.3008 11.48479,1.33553 16.62533,3.25269 11.61458,4.33168 20.64631,12.11129 23.39464,25.11802 0.46484,2.19997 0.50515,4.65449 0.2159,7.16825 -0.65913,5.69831 -3.21608,11.74402 -6.35537,15.19638 -5.25073,5.51501 -14.19169,9.75229 -22.20169,11.25728 -10.13655,1.90455 -22.68853,0.47548 -31.27272,-2.07559 -1.11662,-0.33184 -2.0502,-0.62147 -2.88723,-0.89783 -1.77309,-0.46423 2.69236,-1.15619 1.2044,-0.22035 -3.477,3.49291 -9.65924,6.96693 -14.66217,9.02691 -4.41564,1.81816 -10.24235,3.40207 -18.51655,4.24348 -12.09959,1.23041 -24.26356,-0.36147 -34.72253,-4.55949 -2.10981,-0.84683 -4.6633,-1.89196 -6.89025,-3.17623 -5.01516,-2.89218 -8.84291,-5.11116 -13.5765,-9.96631"
       style="display:inline;opacity:1;fill:#d5f6ff;fill-opacity:1;fill-rule:nonzero;stroke:#000000;stroke-width:1.03125;stroke-linecap:round;stroke-linejoin:round;stroke-miterlimit:4;stroke-dasharray:none;stroke-dashoffset:0;stroke-opacity:1" />
    <path
       sodipodi:nodetypes="cssssccssccccsscsssccccsscc"
       id="path9659"
       d="m -134.39164,-70.150046 c -13.04973,7.26625 -30.25983,6.53909 -42.85531,-1.17899 -11.3075,-6.92885 -14.89491,-23.040013 -7.79938,-34.582084 6.83659,-11.12085 18.47404,-17.679 30.6967,-20.90803 11.93726,-3.15363 25.79198,-4.40177 36.82694,1.52792 4.20299,2.2585 1.68516,3.42232 -1.2126,2.97367 -2.5594,-0.39623 -5.41555,-2.05019 -4.20004,-5.31857 3.07908,-8.27927 11.44294,-12.52326 18.99522,-15.41266 17.818933,-6.81726 38.254673,-8.36185 56.547803,-2.39153 6.88623,2.24746 14.65253,6.73298 16.35506,14.33108 0.68728,3.06724 -0.32306,7.0858 -3.50795,8.40866 -2.5728,1.27616 -6.25246,-1.12075 -1.58706,-1.72445 3.35351,-0.36993 6.20804,-0.51006 9.45157,-0.67387 5.49616,-0.27757 12.12658,0.57877 17.6305501,2.11806 12.43578,3.47791 22.3608099,10.46269 25.9953699,22.91179 0.61475,2.105648 0.79878,4.484805 0.64219,6.941884 -0.3545,5.729439 -2.69047,11.92487 -5.79435,15.56806 -4.9583399,5.81986 -13.7075299,10.58533 -21.6818399,12.56757 -10.0913901,2.5085 -22.8124601,1.834 -31.6057801,-0.19828 -4.11021,-0.94994 -5.8088,-1.49739 -9.14425,-2.78927 -0.18598,-0.71181 -1.08388,-2.38806 2.31422,-0.78383 0.33,0.20597 0.81817,0.60905 0.0198,1.60895 -2.99401,3.74964 -10.43066,7.9656 -16.28605,10.32562 -4.51098,1.81816 -10.46351,3.40207 -18.91637,4.24348 -12.36087,1.23041 -24.787523,-0.36147 -35.472333,-4.55949 -2.15536,-0.84683 -4.76399,-1.89196 -7.03903,-3.17623 -5.12345,-2.89218 -9.03385,-5.11116 -13.86966,-9.96631"
       style="display:inline;opacity:1;fill:#d5f6ff;fill-opacity:1;fill-rule:nonzero;stroke:#000000;stroke-width:1.03125;stroke-linecap:round;stroke-linejoin:round;stroke-miterlimit:4;stroke-dasharray:none;stroke-dashoffset:0;stroke-opacity:1"
       inkscape:connector-curvature="0" />
    <path
       sodipodi:nodetypes="cssssccssccccsscsssccccsscc"
       id="path9661"
       d="m 93.321817,-68.275046 c -12.575403,7.26625 -29.159962,6.53909 -41.297626,-1.17899 -10.896493,-6.92885 -14.353512,-23.040013 -7.515882,-34.582084 6.588092,-11.12085 17.802547,-17.679 29.580946,-20.90803 11.503367,-3.15363 24.8545,-4.40177 35.488365,1.52792 4.05022,2.2585 1.62391,3.42232 -1.16853,2.97367 -2.46637,-0.39623 -5.2187,-2.05019 -4.04737,-5.31857 2.96716,-8.27927 11.02701,-12.52326 18.30478,-15.41266 17.17126,-6.81726 36.8642,-8.36185 54.49242,-2.39153 6.63593,2.24746 14.11995,6.73298 15.76059,14.33108 0.6623,3.06724 -0.31131,7.0858 -3.38044,8.40866 -2.47929,1.27616 -6.0252,-1.12075 -1.52937,-1.72445 3.23161,-0.36993 5.98239,-0.51006 9.10802,-0.67387 5.29639,-0.27757 11.68581,0.57877 16.98972,2.11806 11.98377,3.47791 21.54805,10.46269 25.0505,22.91179 0.59241,2.105648 0.76975,4.484805 0.61885,6.941884 -0.34162,5.729439 -2.59268,11.92487 -5.58374,15.56806 -4.77812,5.81986 -13.20929,10.58533 -20.89376,12.56757 -9.72459,2.5085 -21.98327,1.834 -30.45698,-0.19828 -3.96081,-0.94994 -5.59766,-1.49739 -8.81188,-2.78927 -0.17922,-0.71181 -1.04448,-2.38806 2.23011,-0.78383 0.318,0.20597 0.78843,0.60905 0.0191,1.60895 -2.88519,3.74964 -10.05153,7.9656 -15.69409,10.32562 -4.34702,1.81816 -10.08319,3.40207 -18.22881,4.24348 -11.91158,1.23041 -23.88655,-0.36147 -34.18299,-4.55949 -2.07702,-0.84683 -4.59083,-1.89196 -6.78318,-3.17623 -4.93722,-2.89218 -8.705486,-5.11116 -13.365525,-9.96631"
       style="display:inline;opacity:1;fill:#d5f6ff;fill-opacity:1;fill-rule:nonzero;stroke:#000000;stroke-width:1.03125;stroke-linecap:round;stroke-linejoin:round;stroke-miterlimit:4;stroke-dasharray:none;stroke-dashoffset:0;stroke-opacity:1"
       inkscape:connector-curvature="0" />
    <path
       sodipodi:nodetypes="csssscccsscccscccscccscsccc"
       inkscape:connector-curvature="0"
       id="path9667"
       d="m 349.25933,-72.025046 c -12.57541,7.26625 -29.15997,6.53909 -41.29763,-1.17899 -10.89649,-6.92885 -14.35351,-23.040013 -7.51588,-34.582084 6.58809,-11.12085 17.80254,-17.679 29.58094,-20.90803 11.50337,-3.15363 24.8545,-4.40177 35.48837,1.52792 4.05022,2.2585 1.62391,3.42232 -1.16853,2.97367 -2.46637,-0.39623 -5.2187,-2.05019 -4.04738,-5.31857 2.96717,-8.27927 11.02702,-12.52326 18.30479,-15.41266 17.17126,-6.81726 36.8642,-8.36185 54.49242,-2.39153 6.63593,2.24746 14.11995,6.73298 15.76059,14.33108 0.6623,3.06724 -0.31131,7.0858 -3.38044,8.40866 -2.47929,1.27616 -6.0252,-1.12075 -1.52937,-1.72445 3.23161,-0.36993 5.98239,-0.51006 9.10802,-0.67387 5.29639,-0.27757 11.68581,0.57877 16.98972,2.11806 11.98377,3.47791 21.54805,10.46269 25.0505,22.91179 0.59241,2.105648 0.76975,4.484805 0.61885,6.941884 -0.34162,5.729439 -2.59268,11.92487 -5.58374,15.56806 -4.77812,5.81986 -13.20929,10.58533 -20.89376,12.56757 -9.72459,2.5085 -21.98327,1.834 -30.45698,-0.19828 -1.34336,-0.32218 -2.41939,-0.59807 -3.40301,-0.87621 0.77332,-1.12366 3.84549,-2.08784 3.02234,-1.08794 -0.29188,0.3545 -0.6247,0.71317 -0.99323,1.07404 -3.52944,3.45619 -10.33319,7.11468 -15.80015,9.25158 -4.6515,1.81816 -10.78946,3.40207 -19.50564,4.24348 -12.74592,1.23041 -25.55967,-0.36147 -36.57732,-4.55949 -2.2225,-0.84683 -4.91239,-1.89196 -7.2583,-3.17623 -5.28305,-2.89218 -9.31527,-5.11116 -14.30171,-9.96631"
       style="display:inline;opacity:1;fill:#d5f6ff;fill-opacity:1;fill-rule:nonzero;stroke:#000000;stroke-width:1.03125;stroke-linecap:round;stroke-linejoin:round;stroke-miterlimit:4;stroke-dasharray:none;stroke-dashoffset:0;stroke-opacity:1" />
    <path
       sodipodi:nodetypes="csssscccssccsscccscccscsccc"
       inkscape:connector-curvature="0"
       id="path9669"
       d="m 594.88433,-72.025046 c -12.5754,7.26625 -29.15996,6.53909 -41.29762,-1.17899 -10.8965,-6.92885 -14.35351,-23.040013 -7.51588,-34.582084 6.58809,-11.12085 17.80254,-17.679 29.58094,-20.90803 11.50337,-3.15363 24.8545,-4.40177 35.48837,1.52792 4.05022,2.2585 1.6239,3.42232 -1.16853,2.97367 -2.46637,-0.39623 -5.21871,-2.05019 -4.04738,-5.31857 2.96717,-8.27927 11.02702,-12.52326 18.30479,-15.41266 17.17126,-6.81726 36.8642,-8.36185 54.49242,-2.39153 6.63593,2.24746 14.11995,6.73298 15.76059,14.33108 0.41883,1.93971 0.0897,4.44737 -0.9162,6.22562 -0.29965,0.37391 -0.055,0.0913 0.80686,0.0303 1.4539,-0.26053 2.81741,-0.44877 4.30755,-0.52686 5.29639,-0.27758 11.68581,0.67252 16.98972,2.21181 11.98377,3.47791 21.54805,10.65019 25.0505,23.09929 0.59241,2.105644 0.76975,4.484801 0.61885,6.94188 -0.34162,5.729439 -2.59268,11.92487 -5.58374,15.56806 -4.77812,5.81986 -13.20929,10.58533 -20.89376,12.56757 -9.72459,2.5085 -21.98327,1.834 -30.45698,-0.19828 -1.34336,-0.32218 -2.41939,-0.59807 -3.40301,-0.87621 0.77332,-1.12366 3.02518,-1.20893 2.20203,-0.20903 -0.29188,0.3545 0.19561,-0.16574 -0.17292,0.19513 -3.52944,3.45619 -10.33319,7.11468 -15.80015,9.25158 -4.6515,1.81816 -10.78946,3.40207 -19.50564,4.24348 -12.74592,1.23041 -25.55967,-0.36147 -36.57732,-4.55949 -2.2225,-0.84683 -4.9124,-1.89196 -7.2583,-3.17623 -5.28305,-2.89218 -9.31527,-5.11116 -14.30172,-9.96631"
       style="display:inline;opacity:1;fill:#d5f6ff;fill-opacity:1;fill-rule:nonzero;stroke:#000000;stroke-width:1.03125;stroke-linecap:round;stroke-linejoin:round;stroke-miterlimit:4;stroke-dasharray:none;stroke-dashoffset:0;stroke-opacity:1" />
    <path
       sodipodi:nodetypes="csssccccsssssscccscccscsccc"
       inkscape:connector-curvature="0"
       id="path9673"
       d="m 596.46442,57.366124 c -12.5754,7.26625 -29.15996,6.53909 -41.29763,-1.17899 C 544.2703,49.258284 540.81328,33.147121 547.65091,21.60505 554.239,10.4842 565.45346,3.9260504 577.23186,0.69702042 c 9.8425,-2.69830502 21.03771,-4.00163302 30.72618,-0.607469 1.1143,0.231989 -0.78022,1.03039298 -0.60149,0.272495 0.0396,-0.156597 0.0887,-0.31725 0.14777,-0.482006 2.96716,-8.27927002 11.02701,-12.52326042 18.30478,-15.41266042 17.17126,-6.81726 36.8642,-8.36185 54.49242,-2.39153 6.63593,2.24746 14.11995,6.732979 15.76059,14.3310804 0.41883,1.939706 -0.0167,4.39124402 -0.9162,6.225616 -1.01519,2.070321 -2.18686,0.717348 0.80686,0.03033 0.99524,-0.228395 2.73323,-0.336452 4.30755,-0.380792 4.92425,-0.138691 11.68581,0.526452 16.98972,2.065742 11.98377,3.47791 21.54805,10.6501896 25.0505,23.0992896 0.59241,2.105648 0.76975,4.484805 0.61885,6.941884 -0.34162,5.729439 -2.59268,11.924874 -5.58374,15.568064 -4.77812,5.81986 -13.20929,10.58533 -20.89376,12.56757 -9.72459,2.5085 -21.98327,1.834 -30.45698,-0.19828 -1.34336,-0.32218 -1.34216,-0.39091 -2.32578,-0.66905 0.16141,-0.60465 1.09518,-0.39826 0.95188,-0.22106 -0.2506,0.2454 -0.5177,0.49181 -0.79966,0.73863 -3.6892,3.22941 -9.9217,6.52777 -15.00049,8.51295 -4.6515,1.81816 -10.78946,3.40207 -19.50564,4.24348 -12.74592,1.23041 -25.55966,-0.36147 -36.57732,-4.55949 -2.2225,-0.84683 -4.91239,-1.89196 -7.2583,-3.17623 -5.28305,-2.89218 -9.31526,-5.11116 -14.30171,-9.96631"
       style="display:inline;opacity:1;fill:#d5f6ff;fill-opacity:1;fill-rule:nonzero;stroke:#000000;stroke-width:1.03125;stroke-linecap:round;stroke-linejoin:round;stroke-miterlimit:4;stroke-dasharray:none;stroke-dashoffset:0;stroke-opacity:1" />
    <path
       sodipodi:nodetypes="cssscccsccssscccsccccssccsc"
       inkscape:connector-curvature="0"
       id="path9683"
       d="m 597.58797,177.18911 c -14.89559,4.6146 -29.9886,3.88744 -42.12626,-3.83064 -10.8965,-6.92885 -14.52318,-23.14222 -7.51588,-34.58208 5.59372,-9.13211 14.88179,-15.94534 26.43211,-19.91366 7.33693,-2.52074 22.07367,-4.69186 31.88032,-2.19947 2.48978,0.49075 -0.53121,1.05757 -0.23767,0.38812 2.69519,-5.29616 11.24809,-12.52326 18.67176,-15.41266 17.51552,-6.817262 37.60327,-8.361852 55.5849,-2.391532 6.76897,2.247462 14.40303,6.732982 16.07656,14.331082 0.42723,1.9397 -0.017,4.39124 -0.92377,6.22561 -1.0044,2.07033 -2.17607,0.71735 0.81765,0.0303 0.99524,-0.22839 2.73323,-0.33645 4.30755,-0.38079 4.92425,-0.13869 11.68581,0.52645 16.98972,2.06574 11.98377,3.47791 21.54805,10.65019 25.0505,23.09929 0.59241,2.10565 0.76975,4.48481 0.61885,6.94189 -0.34162,5.72944 -2.59268,11.92487 -5.58374,15.56806 -4.77812,5.81986 -13.20929,10.58533 -20.89376,12.56757 -9.72459,2.5085 -21.98327,1.834 -30.45698,-0.19828 -1.34336,-0.32218 -1.34216,-0.39091 -2.32578,-0.66905 0.16141,-0.60465 1.09518,-0.39826 0.95188,-0.22106 -0.2506,0.2454 -0.5177,0.49181 -0.79966,0.73863 -3.6892,3.22941 -9.9217,6.52777 -15.00049,8.51295 -4.6515,1.81816 -10.78946,3.40207 -19.50564,4.24348 -12.74592,1.23041 -25.55967,-0.36147 -36.57732,-4.55949 -2.2225,-0.84683 -4.9124,-1.89196 -7.2583,-3.17623 -3.86469,-2.11571 -7.06002,-3.87116 -10.44919,-6.56186 -1.24385,-0.9875 -0.99036,-0.81191 -1.62596,-1.41226"
       style="display:inline;opacity:1;fill:#d5f6ff;fill-opacity:1;fill-rule:nonzero;stroke:#000000;stroke-width:1.03125;stroke-linecap:round;stroke-linejoin:round;stroke-miterlimit:4;stroke-dasharray:none;stroke-dashoffset:0;stroke-opacity:1" />
    <path
       sodipodi:nodetypes="csssscccsccssscccsccccssccsc"
       inkscape:connector-curvature="0"
       id="path9689"
       d="m 840.94421,174.72817 c 0.0112,0.005 -0.47634,0.16718 -1.2715,0.39912 -12.87563,3.75568 -25.76267,2.68784 -36.24571,-4.58132 -9.99226,-6.92885 -13.31799,-23.14222 -6.89218,-34.58208 5.12953,-9.13211 13.64685,-15.94534 24.23868,-19.91366 6.72809,-2.52074 20.24193,-4.69187 29.23478,-2.19948 2.48976,0.49075 -0.53123,1.05758 -0.23768,0.38813 2.69519,-5.29617 11.24809,-12.52326 18.67176,-15.412662 17.51552,-6.81726 37.60327,-8.36185 55.5849,-2.39153 6.76897,2.24746 14.40303,6.732982 16.07656,14.331082 0.42723,1.9397 -0.017,4.39124 -0.92377,6.22561 -1.0044,2.07032 -2.17607,0.71735 0.81765,0.0303 0.99524,-0.22839 2.73323,-0.33645 4.30755,-0.38079 4.92425,-0.13869 11.68581,0.52645 16.98972,2.06574 11.98377,3.47791 21.54805,10.65019 25.0505,23.09929 0.59241,2.10565 0.76975,4.48481 0.61885,6.94189 -0.34162,5.72944 -2.59268,11.92487 -5.58374,15.56806 -4.77812,5.81986 -13.20929,10.58533 -20.89376,12.56757 -9.72459,2.5085 -21.98327,1.834 -30.45698,-0.19828 -1.34336,-0.32218 -1.34216,-0.39091 -2.32578,-0.66905 0.16141,-0.60465 1.09518,-0.39826 0.95188,-0.22106 -0.2506,0.2454 -0.5177,0.49181 -0.79966,0.73863 -3.6892,3.22941 -9.9217,6.52777 -15.00049,8.51295 -4.6515,1.81816 -10.78946,3.40207 -19.50564,4.24348 -12.74592,1.23041 -25.55967,-0.36147 -36.57732,-4.55949 -2.22251,-0.84683 -4.9124,-1.89196 -7.25831,-3.17623 -3.86469,-2.11571 -7.06002,-3.87116 -10.44919,-6.56186 -1.24384,-0.9875 -1.21164,-0.99794 -1.21164,-0.99794"
       style="display:inline;opacity:1;fill:#d5f6ff;fill-opacity:1;fill-rule:nonzero;stroke:#000000;stroke-width:1.03125;stroke-linecap:round;stroke-linejoin:round;stroke-miterlimit:4;stroke-dasharray:none;stroke-dashoffset:0;stroke-opacity:1" />
    <path
       sodipodi:nodetypes="cssssscccssccssscccsccccssscsc"
       inkscape:connector-curvature="0"
       id="path9719"
       d="m 1099.3871,171.73866 c 0.011,0.005 -0.4764,0.16718 -1.2715,0.39912 -12.8757,3.75568 -25.7627,2.68784 -36.2457,-4.58132 -6.8707,-4.76425 -10.5957,-13.58697 -10.1536,-22.89151 0.1937,-4.07765 1.8092,-9.11109 3.9101,-12.68495 5.3682,-9.13211 15.2929,-15.41593 24.3036,-18.97788 8.5194,-3.36773 23.0975,-4.41311 31.4073,-1.68807 2.4406,0.76618 -0.7154,1.16887 -0.4823,0.49942 -0.086,-0.64686 -0.076,-0.53807 0.02,-1.1936 0.8418,-5.71924 8.2914,-11.636104 16.3713,-15.446081 15.8371,-7.467749 37.2127,-8.196121 54.6993,-2.225801 6.5826,2.24746 14.9735,7.230162 16.6009,14.828262 0.4273,1.93971 -0.017,4.39125 -0.9237,6.22562 -1.0044,2.07032 -2.1761,0.71735 0.8176,0.0303 0.9953,-0.2284 2.7333,-0.33645 4.3076,-0.38079 4.9242,-0.13869 11.6858,0.52645 16.9897,2.06574 11.9838,3.47791 21.5481,10.65019 25.0505,23.09929 0.5924,2.10565 0.7698,4.4848 0.6189,6.94188 -0.3417,5.72944 -2.5927,11.92488 -5.5838,15.56807 -4.7781,5.81986 -13.2093,10.58533 -20.8937,12.56757 -9.7246,2.5085 -21.9833,1.834 -30.457,-0.19828 -1.3434,-0.32218 -1.3422,-0.39091 -2.3258,-0.66905 0.1614,-0.60465 1.0952,-0.39826 0.9509,-0.22106 -0.2453,0.2454 -0.5057,0.49181 -0.7806,0.73863 -3.5961,3.22941 -9.6715,6.52777 -14.6222,8.51295 -4.5342,1.81816 -10.5174,3.40207 -19.0138,4.24348 -12.4245,1.23041 -24.9151,-0.36147 -35.655,-4.55949 -2.1664,-0.84683 -4.7885,-1.89196 -7.0752,-3.17623 -3.7673,-2.11571 -6.882,-3.87116 -10.1857,-6.56186 -1.2125,-0.9875 -1.1811,-0.99794 -1.1811,-0.99794"
       style="display:inline;opacity:1;fill:#d5f6ff;fill-opacity:1;fill-rule:nonzero;stroke:#000000;stroke-width:1.03125;stroke-linecap:round;stroke-linejoin:round;stroke-miterlimit:4;stroke-dasharray:none;stroke-dashoffset:0;stroke-opacity:1" />
    <g
       id="g300912"
       transform="matrix(1.166,0,0,1.166,15.413409,4.4054775)"
       style="stroke-width:0.857633">
      <path
         style="display:inline;fill:#e5f6ff;fill-opacity:1;fill-rule:nonzero;stroke:none;stroke-width:0.804031;stroke-linecap:round;stroke-linejoin:round;stroke-miterlimit:4;stroke-dasharray:none;stroke-dashoffset:0;stroke-opacity:1"
         d="m -53.29821,82.79114 c 2.50992,-0.86362 1.15997,-0.57259 4.07038,-0.77175 1.9373,0.40391 2.95979,0.32195 4.45497,1.80343 2.04811,2.02933 2.12352,5.13692 1.09139,7.67108 -0.35898,0.8814 -0.98307,1.62987 -1.4746,2.4448 -0.69873,0.62052 -1.31002,1.35639 -2.09619,1.86156 -2.83588,1.82223 -6.99467,2.13988 -9.49639,-0.45799 -0.50211,-0.52141 -0.76076,-1.23176 -1.14114,-1.84764 -0.08239,-0.79119 -0.30039,-1.57989 -0.24717,-2.37357 0.2255,-3.36275 2.85171,-6.42882 5.66775,-8.02315"
         id="path252169" />
      <path
         style="display:inline;fill:#e5f6ff;fill-opacity:1;fill-rule:nonzero;stroke:none;stroke-width:0.804031;stroke-linecap:round;stroke-linejoin:round;stroke-miterlimit:4;stroke-dasharray:none;stroke-dashoffset:0;stroke-opacity:1"
         d="m 71.29015,113.23877 c 0,0 -2.47681,0.78182 -3.45754,1.0689 -12.35673,3.62696 -24.7325,2.62345 -34.81036,-4.33722 -6.60509,-4.56206 -10.19662,-13.02544 -9.7877,-21.95834 0.17921,-3.91478 1.72192,-8.74948 3.73316,-12.18383 5.13923,-8.77563 14.6583,-14.82459 23.30429,-18.25909 8.17454,-3.24722 22.1705,-4.2752 30.15402,-1.67315 2.34476,0.73143 -0.68491,1.12329 -0.46221,0.48024 -0.08378,-0.62083 -0.0743,-0.51641 0.01723,-1.14586 0.79871,-5.49176 7.9418,-11.18431 15.69368,-14.85534 15.19407,-7.19542 35.71742,-7.93046 52.51782,-2.22839 6.32431,2.14648 14.38948,6.91571 15.96491,14.20699 0.4135,1.86136 -0.009,4.21553 -0.87654,5.97801 -0.96094,1.98915 -2.08823,0.69229 0.78515,0.02775 0.95524,-0.22092 2.62385,-0.32757 4.13541,-0.37277 4.72797,-0.14139 11.22146,0.4858 16.3168,1.9546 11.5125,3.31864 20.708,10.18784 24.09187,22.13284 0.57235,2.02039 0.74663,4.30403 0.60584,6.66302 -0.31842,5.50071 -2.46947,11.45196 -5.33535,14.95436 -4.57814,5.59495 -12.66566,10.18382 -20.04088,12.09961 -9.33322,2.42441 -21.10499,1.79744 -29.24474,-0.1393 -1.29042,-0.30703 -0.74041,-0.19692 -1.68535,-0.46229 -0.17747,-6.8e-4 0.10835,-0.18735 -0.0299,-0.017 -0.23513,0.23598 -0.0911,0.10008 -0.3546,0.33748 -3.4476,3.1062 -9.27553,6.28273 -14.02584,8.19675 -4.35065,1.753 -10.09296,3.28354 -18.2497,4.10552 -11.92781,1.20198 -23.92382,-0.30525 -34.24311,-4.31727 -2.08162,-0.8093 -4.60105,-1.8082 -6.79891,-3.03725 -3.6208,-2.02473 -6.6145,-3.70469 -9.79118,-6.28217 -0.90328,-0.7329 -0.93894,-0.74886 -0.93894,-0.74886"
         id="path252167" />
      <path
         style="display:inline;fill:#e5f6ff;fill-opacity:1;fill-rule:nonzero;stroke:none;stroke-width:0.804031;stroke-linecap:round;stroke-linejoin:round;stroke-miterlimit:4;stroke-dasharray:none;stroke-dashoffset:0;stroke-opacity:1"
         d="m -20.15516,82.80224 c 0.82161,-0.53652 1.60892,-1.12951 2.46478,-1.60959 2.23261,-1.25239 2.82896,-1.31173 5.2059,-2.06269 2.09411,-0.29579 2.62111,-0.53175 4.69819,-0.21787 3.06549,0.46326 5.73627,2.10133 7.84461,4.3168 0.46939,0.62735 0.99514,1.21639 1.40829,1.88211 1.64572,2.65169 2.42498,5.94664 1.93182,9.04328 -0.13064,0.82067 -0.41356,1.60963 -0.62033,2.41445 -0.96786,2.09242 -1.14002,2.80493 -2.6489,4.63263 -2.39498,2.90103 -5.71876,4.39505 -9.39222,4.8894 -0.97477,0.0104 -1.95211,0.10318 -2.92433,0.0313 -3.88351,-0.28711 -7.64056,-1.76576 -10.37596,-4.58985 -0.61747,-0.63749 -1.10788,-1.38666 -1.66178,-2.08 -0.39545,-0.75245 -0.85238,-1.47573 -1.18641,-2.25739 -1.15976,-2.71383 -1.56113,-5.87801 -0.89762,-8.77092 0.13444,-0.58614 0.38096,-1.14077 0.57145,-1.71115 0.31039,-0.52039 0.5749,-1.07101 0.9311,-1.56119 1.33483,-1.83739 3.39495,-2.93532 5.48593,-3.67903"
         id="cloud" />
      <path
         d="m -53.29876,82.31185 c 2.4904,-0.8569 1.29054,-0.59735 4.18345,-0.79531 l 0.04945,-0.0034 0.04535,0.0095 c 1.90718,0.39764 3.05457,0.34927 4.59992,1.88044 2.14952,2.12983 2.25572,5.4331 1.1416,8.16858 -0.4151,1.01918 -1.07611,1.80145 -1.52674,2.54856 l -0.05996,0.09942 -0.08485,0.07535 c -0.64376,0.5717 -1.28346,1.34914 -2.17951,1.92492 -3.04495,1.95657 -7.35497,2.25874 -9.97561,-0.46263 -0.55858,-0.58003 -0.82335,-1.32033 -1.18028,-1.89825 l -0.04247,-0.06876 -0.0095,-0.091 c -0.07701,-0.73951 -0.31003,-1.54187 -0.24853,-2.45903 0.24297,-3.62317 3.06015,-6.90143 6.02462,-8.5798 l 0.18518,0.87501 c -2.66761,1.51029 -5.10286,4.36416 -5.3109,7.4665 -0.04332,0.64609 0.14375,1.38961 0.2359,2.19739 0.37978,0.63238 0.62998,1.28148 1.05997,1.728 2.3828,2.47438 6.39036,2.14124 9.01717,0.45336 0.65083,-0.41821 1.21515,-1.07695 1.92846,-1.72251 0.51589,-0.83757 1.07062,-1.52636 1.36207,-2.24196 0.95014,-2.33285 0.9055,-5.24475 -1.04119,-7.17359 -1.43384,-1.4207 -2.32869,-1.31793 -4.26455,-1.717 -2.86171,0.19339 -1.39288,-0.12059 -3.90798,0.74482 z"
         id="path252163"
         style="stroke-width:0.857633" />
      <path
         d="m 71.27866,113.72201 c 0,0 -2.4702,0.78 -3.46724,1.07185 -12.46199,3.65786 -24.94728,2.6427 -35.10316,-4.37186 -6.69949,-4.62726 -10.33998,-13.18814 -9.92381,-22.27931 0.1847,-4.03471 1.74482,-8.93043 3.82785,-12.48738 5.26956,-8.99816 14.91691,-15.09328 23.63667,-18.55708 8.32988,-3.30892 22.31138,-4.33136 30.41514,-1.6909 2.38832,0.74702 -1.76389,3.21727 -1.16195,1.07236 -0.06626,-0.51355 -0.0494,-0.59967 0.03409,-1.17386 0.86247,-5.93016 8.24935,-11.6778 16.08349,-15.3878 15.35732,-7.27272 35.93843,-7.98663 52.81604,-2.25835 6.37812,2.16475 14.53262,6.90325 16.1621,14.44151 0.40124,1.80787 0.078,3.99767 -0.68992,5.81678 0.0659,-0.01793 0.13428,-0.03512 0.20508,-0.05149 1.03644,-0.23971 2.69465,-0.3379 4.21557,-0.38339 4.77129,-0.14269 11.28032,0.48553 16.41955,1.96698 11.57833,3.33761 20.87295,10.26291 24.29652,22.34806 0.58766,2.0744 0.76462,4.40952 0.621,6.81586 -0.32519,5.61766 -2.48216,11.66305 -5.49797,15.34868 -4.72771,5.77774 -12.89341,10.37816 -20.36302,12.31847 -9.44369,2.4531 -21.23483,1.81441 -29.42558,-0.13447 -1.29349,-0.30776 -0.7609,-0.20241 -1.69733,-0.46539 l 0.0883,0.012 c -0.43427,-0.002 0.68964,-0.61042 0.39871,-0.25194 l -0.0243,0.03 -0.0269,0.027 c -0.22877,0.22959 -0.12409,0.13122 -0.38302,0.36451 -3.56556,3.21248 -9.41045,6.38015 -14.20976,8.31391 -4.40124,1.77338 -10.18779,3.31226 -18.37508,4.13732 -11.98743,1.20799 -24.03087,-0.30564 -34.39848,-4.33645 -2.0831,-0.80987 -4.61376,-1.81211 -6.835,-3.05424 -3.62101,-2.02484 -6.6337,-3.71493 -9.83111,-6.30923 -0.90202,-0.73187 -0.87634,-0.71042 -0.87634,-0.71042 l 0.53749,-0.954 c 0,0 0.09698,0.0534 1.00153,0.7873 3.15594,2.56066 6.13065,4.23049 9.75125,6.2551 2.17449,1.21598 4.68268,2.21154 6.76283,3.02027 10.27096,3.99323 22.21954,5.49406 34.08773,4.29809 8.12619,-0.8189 13.82426,-2.3411 18.12432,-4.07372 4.70131,-1.89428 10.51228,-5.07967 13.84191,-8.07958 0.26808,-0.24152 0.0847,-0.0681 0.32619,-0.31046 l -0.0512,0.057 c -0.0144,0.0178 0.53784,-0.21764 0.45851,-0.21794 l 0.0463,1.8e-4 0.042,0.0118 c 0.95345,0.26776 0.38602,0.15289 1.67337,0.45919 8.08875,1.9246 19.84115,2.53985 29.0639,0.14413 7.28083,-1.89127 15.29017,-6.46859 19.71874,-11.88075 2.71595,-3.31917 4.86108,-9.17629 5.17267,-14.55908 0.13802,-2.31262 -0.0336,-4.54479 -0.59062,-6.51115 -3.34417,-11.80486 -12.44055,-18.61796 -23.88722,-21.91762 -5.05145,-1.45615 -11.5294,-2.08231 -16.21405,-1.94222 -1.5022,0.04493 -3.18121,0.16002 -4.05525,0.36216 -2.7228,0.62971 -1.92889,1.0299 -1.12186,-0.64066 l 10e-4,-0.0025 0.001,-0.0025 c 0.7938,-1.61267 1.20247,-3.86719 0.81767,-5.59939 l -2.6e-4,-0.0012 -2.5e-4,-0.0012 c -1.52193,-7.04368 -9.4973,-11.84328 -15.76749,-13.97139 -16.72319,-5.67587 -37.18878,-4.91969 -52.2196,2.19842 -7.66962,3.63208 -14.56892,9.26952 -15.30388,14.3229 -0.0937,0.64438 -0.09962,0.38006 -0.01555,1.00303 l 0.01671,0.1238 -0.0474,0.13686 c 0.38546,-1.11304 2.05556,0.66704 -0.18974,-0.03336 l -0.0018,-5.7e-4 -0.0018,-5.9e-4 c -7.86352,-2.56295 -21.87256,-1.52934 -29.89118,1.65594 -8.57222,3.4052 -17.963,9.40801 -22.97191,17.96111 -1.93944,3.31174 -3.46476,8.08543 -3.63848,11.88027 -0.40168,8.77463 3.1409,17.14051 9.65159,21.63737 9.99985,6.90678 22.26609,7.89864 34.51722,4.30268 0.96477,-0.28241 3.44818,-1.06605 3.44818,-1.06605 z"
         id="path252161"
         style="stroke-width:0.857633" />
      <path
         d="m -20.2813,82.38517 c 0.79762,-0.52085 1.5976,-1.12478 2.50041,-1.63119 2.26531,-1.27074 2.94616,-1.36112 5.30778,-2.10724 l 0.03657,-0.01155 0.03593,-0.0051 c 2.07346,-0.29287 2.69497,-0.53669 4.80407,-0.21797 3.15034,0.47609 5.86974,2.15079 8.01305,4.403 L 0.42846,82.8277 0.439,82.84178 c 0.45891,0.61335 0.99096,1.20746 1.4234,1.90427 1.68399,2.71333 2.49852,6.08249 1.97962,9.34076 -0.14235,0.89421 -0.43556,1.70608 -0.63224,2.47161 l -0.01547,0.06022 -0.0272,0.05881 c -0.95509,2.0648 -1.20021,2.91684 -2.75293,4.79765 -2.53377,3.06914 -6.01423,4.61128 -9.76374,5.11586 l -0.0242,0.003 -0.02353,2.5e-4 c -0.95403,0.0102 -1.94349,0.10511 -2.9544,0.0304 -3.95399,-0.29233 -7.77587,-1.79436 -10.56804,-4.67706 -0.64292,-0.66377 -1.1381,-1.42238 -1.68021,-2.10095 l -0.01828,-0.02289 -0.01411,-0.02684 c -0.38726,-0.73686 -0.84938,-1.46599 -1.19807,-2.28193 -1.1869,-2.77734 -1.61294,-6.01877 -0.91434,-9.0647 0.15277,-0.6661 0.41241,-1.2446 0.58884,-1.77291 l 0.02466,-0.07383 0.04128,-0.06922 c 0.28675,-0.48076 0.55862,-1.05395 0.96942,-1.61928 1.47042,-2.02401 3.65415,-3.15902 5.79444,-3.92027 l 0.01092,0.95513 c -2.04168,0.72617 -3.97816,1.78702 -5.17736,3.43771 -0.28917,0.39794 -0.53747,0.89969 -0.85179,1.43388 -0.19829,0.58151 -0.41775,1.08988 -0.52916,1.57565 -0.62841,2.73988 -0.25172,5.82681 0.8809,8.47713 0.31567,0.73867 0.76061,1.44809 1.16063,2.20603 0.55791,0.70112 1.03944,1.43151 1.62508,2.03613 2.67863,2.76548 6.37087,4.22075 10.18389,4.50264 0.92608,0.0685 1.88336,-0.0202 2.87048,-0.032 3.58751,-0.48731 6.74556,-1.93285 8.99675,-4.6597 C 1.29573,99.16914 1.40653,98.59046 2.36215,96.51811 2.57631,95.6979 2.83878,94.95068 2.95486,94.22151 3.42228,91.28674 2.6783,88.06598 1.07084,85.47595 0.67988,84.84599 0.16519,84.26598 -0.3117,83.63019 -2.38322,81.4578 -5.00107,79.86161 -7.97604,79.41203 c -2.03342,-0.30729 -2.47256,-0.08352 -4.55634,0.21267 -2.361,0.74459 -2.87884,0.77889 -5.06748,2.00662 -0.80892,0.45375 -1.58356,1.0358 -2.42916,1.58798 z"
         id="cloud_stroke"
         style="stroke-width:0.857633" />
    </g>
    <path
       style="fill:#e5f6ff;fill-opacity:1;stroke:#000000;stroke-width:0.9375;stroke-linejoin:round;stroke-miterlimit:2;stroke-dasharray:none;stroke-dashoffset:0"
       d="m -150.04888,-18.431414 c -3.90609,-1.921399 -9.89492,-1.399786 -12.59721,-0.669159 -4.11486,1.112545 -8.13058,3.110052 -10.46284,6.774469 -4.84925,7.619115 -2.79501,18.762642 4.62057,23.949361 6.07885,4.251751 13.99235,4.811982 21.12086,3.4791 4.1295,-0.772134 9.38583,-3.255815 11.53366,-7.682044 1.7714,-3.6504771 1.72565,-8.04550919 -0.185,-11.6514504 -2.41236,-4.552819 -6.2672,-8.3848016 -11.14037,-10.1766626 -1.66042,-0.610538 -3.64687,-1.160186 -5.24002,-1.424539"
       id="path192934"
       sodipodi:nodetypes="csssssssc" />
  </g>
</svg>
